<svg width="765" height="434" viewBox="0 0 765 434" fill="none" xmlns="http://www.w3.org/2000/svg">
<path d="M0 10C0 4.47716 4.47715 0 10 0H237C242.523 0 247 4.47715 247 10V424C247 429.523 242.523 434 237 434H10C4.47716 434 0 429.523 0 424V10Z" fill="#F5F8FE"/>
<path d="M0 10C0 4.47715 4.47715 0 10 0H237C242.523 0 247 4.47715 247 10V31H0V10Z" fill="#0050E2"/>
<g opacity="0.3">
<path d="M30.4033 19.419C29.5006 19.4187 28.635 19.0804 27.9967 18.4785C27.3585 17.8765 27 17.0602 27 16.209V16.209C27.0003 15.358 27.3589 14.5419 27.9971 13.9402C28.6353 13.3384 29.5008 13.0003 30.4033 13H51.6758C52.5783 13.0003 53.4438 13.3384 54.082 13.9402C54.7201 14.5419 55.0788 15.358 55.0791 16.209V16.209C55.0788 17.06 54.7201 17.8761 54.082 18.4778C53.4438 19.0796 52.5783 19.4177 51.6758 19.418L30.4033 19.419Z" fill="white"/>
</g>
<path d="M259 10C259 4.47715 263.477 0 269 0H496C501.523 0 506 4.47715 506 10V31H259V10Z" fill="#0050E2"/>
<path d="M518 10C518 4.47715 522.477 0 528 0H755C760.523 0 765 4.47715 765 10V31H518V10Z" fill="#0050E2"/>
<g opacity="0.3">
<path d="M289.403 19.419C288.501 19.4187 287.635 19.0804 286.997 18.4785C286.359 17.8765 286 17.0602 286 16.209V16.209C286 15.358 286.359 14.5419 286.997 13.9402C287.635 13.3384 288.501 13.0003 289.403 13H310.676C311.578 13.0003 312.444 13.3384 313.082 13.9402C313.72 14.5419 314.079 15.358 314.079 16.209V16.209C314.079 17.06 313.72 17.8761 313.082 18.4778C312.444 19.0796 311.578 19.4177 310.676 19.418L289.403 19.419Z" fill="white"/>
</g>
<g opacity="0.3">
<path d="M548.403 19.419C547.501 19.4187 546.635 19.0804 545.997 18.4785C545.359 17.8765 545 17.0602 545 16.209V16.209C545 15.358 545.359 14.5419 545.997 13.9402C546.635 13.3384 547.501 13.0003 548.403 13H569.676C570.578 13.0003 571.444 13.3384 572.082 13.9402C572.72 14.5419 573.079 15.358 573.079 16.209V16.209C573.079 17.06 572.72 17.8761 572.082 18.4778C571.444 19.0796 570.578 19.4177 569.676 19.418L548.403 19.419Z" fill="white"/>
</g>
</svg>
