<svg width="988" height="546" viewBox="0 0 988 546" fill="none" xmlns="http://www.w3.org/2000/svg">
<g filter="url(#filter0_d_10_2556)">
<rect x="6" y="2" width="976" height="534" rx="10" fill="white"/>
</g>
<path d="M6 46H56V536H16C10.4772 536 6 531.523 6 526V46Z" fill="#F5F8FE"/>
<circle cx="30.5" cy="99.5" r="13.5" fill="#D9DFEC"/>
<circle cx="30.5" cy="146.5" r="13.5" fill="#D9DFEC"/>
<circle cx="30.5" cy="193.5" r="13.5" fill="#D9DFEC"/>
<circle cx="30.5" cy="240.5" r="13.5" fill="#D9DFEC"/>
<circle cx="30.5" cy="287.5" r="13.5" fill="#D9DFEC"/>
<circle cx="42.5" cy="234.5" r="3.5" fill="#0065FF"/>
<path d="M6 12C6 6.47715 10.4772 2 16 2H972C977.523 2 982 6.47715 982 12V45H6V12Z" fill="#1864FF"/>
<path d="M45.3104 29.7409C44.6409 29.7409 44.037 29.6095 43.4964 29.348C42.9558 29.0727 42.5249 28.7129 42.2037 28.2675C41.8971 27.8172 41.7352 27.2824 41.7401 26.7359C41.7276 26.3086 41.8219 25.885 42.0142 25.5042C42.2065 25.1233 42.4907 24.7975 42.8404 24.5567C43.5733 24.0074 44.5323 23.6407 45.7164 23.4569L48.3605 23.064V22.6516C48.3605 22.1023 48.2259 21.6763 47.9556 21.3747C47.6853 21.0732 47.2228 20.9236 46.5657 20.9236C46.102 20.9236 45.7232 21.0218 45.4269 21.2183C45.1465 21.3981 44.925 21.6575 44.7901 21.9641C44.6872 22.1343 44.5391 22.2199 44.3468 22.2199H42.8223C42.681 22.2199 42.5713 22.1811 42.4944 22.1023C42.4299 22.0235 42.3982 21.9195 42.3982 21.7882C42.4107 21.5792 42.4944 21.3234 42.6493 21.0218C42.8167 20.7203 43.061 20.4325 43.3821 20.1584C43.7169 19.8706 44.1478 19.6284 44.6748 19.432C45.2018 19.2355 45.8396 19.1373 46.5849 19.1373C47.3958 19.1373 48.0777 19.2424 48.6308 19.4514C49.1973 19.6478 49.6475 19.9162 49.9811 20.2566C50.3133 20.5938 50.564 21.0038 50.7139 21.4547C50.8677 21.9127 50.9458 22.397 50.9458 22.9075V29.0739C50.9469 29.1357 50.9355 29.1972 50.9124 29.2546C50.8892 29.3119 50.8548 29.3639 50.8112 29.4074C50.7207 29.4987 50.6121 29.5444 50.4832 29.5444H48.9203C48.7789 29.5444 48.6624 29.4987 48.5731 29.4074C48.4962 29.316 48.4577 29.2041 48.4577 29.0739V28.3075C48.2903 28.5428 48.0653 28.7723 47.7826 28.995C47.4998 29.2178 47.1526 29.4005 46.741 29.5444C46.3418 29.6758 45.8657 29.7409 45.3126 29.7409H45.3104ZM45.9663 27.8758C46.4164 27.8758 46.8224 27.7775 47.182 27.5811C47.5553 27.3846 47.8448 27.0831 48.0506 26.6777C48.2689 26.2585 48.3786 25.7354 48.3786 25.1072V24.6949L46.4492 25.009C45.6904 25.1266 45.1238 25.3162 44.7506 25.5789C44.3774 25.8416 44.1908 26.1614 44.1908 26.5406C44.1908 26.8284 44.2744 27.0774 44.4418 27.2864C44.6289 27.4879 44.8602 27.6424 45.117 27.7376C45.3908 27.8295 45.6777 27.8758 45.9663 27.8746V27.8758ZM57.1455 29.7409C56.476 29.7409 55.8845 29.6301 55.3699 29.4074C54.8822 29.1825 54.4528 28.8462 54.1157 28.4251C53.7706 27.9866 53.5088 27.4875 53.3433 26.9529C53.1635 26.3773 53.0606 25.7491 53.0346 25.0673L53.0153 24.4391L53.0346 23.7915C53.0606 23.1371 53.1567 22.5283 53.3241 21.9652C53.4895 21.4306 53.7514 20.9315 54.0965 20.493C54.4392 20.0649 54.8749 19.7221 55.3699 19.4914C55.8845 19.2561 56.476 19.1385 57.1455 19.1385C57.8398 19.1385 58.4257 19.2629 58.9018 19.5119C59.3903 19.7472 59.7963 20.0556 60.1175 20.4348V16.0741C60.1175 15.9428 60.156 15.832 60.2329 15.7406C60.3233 15.6492 60.4387 15.6036 60.5801 15.6036H62.2199C62.3488 15.6036 62.4574 15.6492 62.5479 15.7406C62.5915 15.7841 62.6259 15.8361 62.6491 15.8934C62.6722 15.9507 62.6836 16.0122 62.6825 16.0741V29.0739C62.6836 29.1357 62.6722 29.1972 62.6491 29.2546C62.6259 29.3119 62.5915 29.3639 62.5479 29.4074C62.4574 29.4987 62.3488 29.5444 62.2199 29.5444H60.6954C60.5541 29.5444 60.4376 29.4987 60.3482 29.4074C60.2713 29.316 60.2329 29.2041 60.2329 29.0739V28.3475C59.8962 28.766 59.4752 29.1074 58.9979 29.3491C58.5094 29.6107 57.8919 29.7409 57.1455 29.7409ZM57.8591 27.6393C58.3997 27.6393 58.8305 27.5148 59.1517 27.2659C59.4692 27.0223 59.7157 26.6968 59.8653 26.3236C60.0175 25.9421 60.1025 25.5366 60.1164 25.1255L60.1356 24.3797L60.1164 23.6133C60.104 23.2204 60.0135 22.847 59.8461 22.494C59.6839 22.1336 59.4313 21.8221 59.1133 21.5906C58.7921 21.3553 58.3736 21.2377 57.8591 21.2377C57.3185 21.2377 56.8876 21.3622 56.5664 21.6112C56.2577 21.8464 56.0326 22.1605 55.8913 22.5534C55.7451 22.9708 55.6605 23.4075 55.6402 23.8497V25.0284C55.6605 25.4706 55.7451 25.9074 55.8913 26.3247C56.0326 26.7176 56.2577 27.0386 56.5664 27.2864C56.8876 27.5217 57.3196 27.6393 57.8591 27.6393ZM69.5788 29.7409C68.1505 29.7409 67.0184 29.3217 66.1827 28.4845C65.3469 27.6473 64.8957 26.4549 64.8323 24.9108L64.8131 24.4197L64.8323 23.9286C64.8832 22.9338 65.1026 22.0829 65.4883 21.3759C65.8875 20.6563 66.4337 20.1058 67.1281 19.7267C67.8225 19.3338 68.6401 19.1373 69.5788 19.1373C70.6204 19.1373 71.4957 19.36 72.2037 19.8055C72.9116 20.2372 73.4454 20.8459 73.8051 21.6317C74.1658 22.4038 74.3456 23.3004 74.3456 24.3214V24.7338C74.3468 24.7957 74.3354 24.8571 74.3123 24.9145C74.2891 24.9718 74.2547 25.0238 74.2111 25.0673C74.1206 25.1586 74.0052 25.2043 73.8639 25.2043H67.4572V25.2637V25.3619C67.4655 25.7992 67.5505 26.2315 67.7083 26.6388C67.8636 27.0033 68.1094 27.3211 68.4219 27.5617C68.7539 27.8003 69.1533 27.9241 69.5607 27.9146C69.9215 27.9146 70.2234 27.862 70.4677 27.757C70.712 27.6393 70.911 27.508 71.066 27.3641C71.1864 27.2575 71.2962 27.1393 71.3939 27.0112C71.5093 26.8535 71.5998 26.7622 71.6642 26.7359C71.7411 26.6971 71.8508 26.6765 71.9922 26.6765H73.6524C73.7813 26.6765 73.8842 26.7154 73.9611 26.7942C74.004 26.8289 74.0373 26.8744 74.0575 26.926C74.0777 26.9777 74.0843 27.0338 74.0765 27.0888C74.064 27.2978 73.9543 27.5537 73.7485 27.8552C73.5551 28.1567 73.2724 28.4514 72.8992 28.7392C72.526 29.027 72.0567 29.2692 71.4901 29.4656C70.937 29.6483 70.3003 29.7409 69.5799 29.7409H69.5788ZM67.4561 23.5551H71.7208V23.4957C71.7208 22.9852 71.6371 22.5397 71.4697 22.1605C71.3218 21.7913 71.0662 21.4763 70.7369 21.2571C70.4157 21.0344 70.0289 20.9236 69.5788 20.9236C69.1287 20.9236 68.7431 21.0344 68.4207 21.2571C68.0914 21.4763 67.8359 21.7913 67.6879 22.1605C67.533 22.5397 67.4561 22.9852 67.4561 23.4957V23.5551ZM76.8574 29.5444C76.7285 29.5444 76.6199 29.4987 76.5295 29.4074C76.4856 29.364 76.451 29.312 76.4276 29.2547C76.4043 29.1974 76.3928 29.1358 76.3937 29.0739V19.8249C76.3915 19.7598 76.4023 19.695 76.4257 19.6343C76.449 19.5737 76.4843 19.5184 76.5295 19.472C76.6199 19.3806 76.7285 19.3349 76.8574 19.3349H78.4204C78.5493 19.3349 78.6578 19.3806 78.7483 19.472C78.8512 19.5633 78.9033 19.681 78.9033 19.8249V20.6301C79.1996 20.2109 79.5784 19.89 80.0421 19.6684C80.5182 19.4457 81.0644 19.3349 81.6819 19.3349H82.4736C82.5349 19.3313 82.5963 19.3417 82.6531 19.3654C82.7099 19.3892 82.7607 19.4256 82.8015 19.472C82.8452 19.5154 82.8796 19.5674 82.9027 19.6248C82.9259 19.6821 82.9372 19.7436 82.9361 19.8055V21.2183C82.9372 21.2802 82.9259 21.3417 82.9027 21.399C82.8796 21.4563 82.8452 21.5083 82.8015 21.5518C82.7607 21.5981 82.7099 21.6346 82.6531 21.6583C82.5963 21.682 82.5349 21.6925 82.4736 21.6888H80.9683C80.3508 21.6888 79.8679 21.8659 79.5207 22.2188C79.186 22.5591 79.0186 23.0434 79.0186 23.6716V29.0716C79.0197 29.1335 79.0084 29.1949 78.9852 29.2523C78.9621 29.3096 78.9277 29.3616 78.884 29.4051C78.7936 29.4964 78.6782 29.5421 78.5368 29.5421L76.8574 29.5444ZM88.6326 29.7409C87.2042 29.7409 86.0722 29.3217 85.2364 28.4845C84.4007 27.6473 83.9494 26.4549 83.8861 24.9108L83.8669 24.4197L83.8861 23.9286C83.937 22.9338 84.1564 22.0829 84.542 21.3759C84.9412 20.6563 85.4875 20.1058 86.1819 19.7267C86.8763 19.3338 87.6939 19.1373 88.6326 19.1373C89.6742 19.1373 90.5495 19.36 91.2574 19.8055C91.9654 20.2372 92.4992 20.8459 92.8588 21.6317C93.2196 22.4038 93.3994 23.3004 93.3994 24.3214V24.7338C93.4005 24.7957 93.3892 24.8571 93.366 24.9145C93.3429 24.9718 93.3085 25.0238 93.2648 25.0673C93.1744 25.1586 93.059 25.2043 92.9176 25.2043H86.511V25.2637V25.3619C86.5193 25.7992 86.6043 26.2315 86.762 26.6388C86.9174 27.0033 87.1631 27.3211 87.4756 27.5617C87.8076 27.8003 88.2071 27.9241 88.6145 27.9146C88.9752 27.9146 89.2772 27.862 89.5215 27.757C89.7658 27.6393 89.9648 27.508 90.1197 27.3641C90.2401 27.2575 90.35 27.1393 90.4477 27.0112C90.5631 26.8535 90.6535 26.7622 90.718 26.7359C90.7949 26.6971 90.9046 26.6765 91.046 26.6765H92.7061C92.8351 26.6765 92.938 26.7154 93.0149 26.7942C93.0578 26.8289 93.091 26.8744 93.1112 26.926C93.1315 26.9777 93.138 27.0338 93.1302 27.0888C93.1178 27.2978 93.0081 27.5537 92.8023 27.8552C92.6089 28.1567 92.3262 28.4514 91.953 28.7392C91.5797 29.027 91.1104 29.2692 90.5438 29.4656C89.9908 29.6483 89.353 29.7409 88.6326 29.7409ZM86.5098 23.5551H90.7745V23.4957C90.7745 22.9852 90.6908 22.5397 90.5235 22.1605C90.3561 21.7676 90.1118 21.4673 89.7906 21.2571C89.4694 21.0344 89.0827 20.9236 88.6326 20.9236C88.1825 20.9236 87.7968 21.0344 87.4745 21.2571C87.1452 21.4763 86.8896 21.7913 86.7417 22.1605C86.5867 22.5397 86.5098 22.9852 86.5098 23.4957V23.5551ZM99.2497 29.7409C98.4772 29.7409 97.8157 29.6495 97.2615 29.4656C96.7209 29.2829 96.2776 29.0533 95.9304 28.778C95.5832 28.5028 95.3254 28.2287 95.158 27.9534C94.9906 27.6782 94.9001 27.4497 94.8877 27.2659C94.8753 27.1219 94.9137 27.0112 95.003 26.9324C95.106 26.841 95.2157 26.7953 95.331 26.7953H96.8555C96.9075 26.7953 96.9516 26.8022 96.9901 26.8147C97.0285 26.8273 97.0806 26.8673 97.145 26.9324L97.6664 27.3835C97.8732 27.5492 98.1001 27.6878 98.3415 27.7958C98.5994 27.9009 98.9206 27.9534 99.3062 27.9534C99.8083 27.9534 100.226 27.8552 100.56 27.6588C100.908 27.4497 101.082 27.1551 101.082 26.7747C101.082 26.4995 101.005 26.2768 100.85 26.1066C100.709 25.9364 100.438 25.7857 100.039 25.6555C99.6398 25.5115 99.0744 25.3608 98.3404 25.2043C97.62 25.0341 97.0217 24.8183 96.5456 24.5567C96.0695 24.2952 95.7155 23.9674 95.4837 23.5745C95.2519 23.1816 95.1365 22.7236 95.1365 22.2005C95.1386 21.6826 95.2929 21.177 95.5798 20.7477C95.8886 20.276 96.3387 19.89 96.9301 19.5896C97.5352 19.2881 98.2805 19.1385 99.1682 19.1385C99.8626 19.1385 100.468 19.2298 100.982 19.4137C101.497 19.5839 101.921 19.7997 102.256 20.0613C102.603 20.3228 102.866 20.5912 103.047 20.8665C103.227 21.128 103.324 21.3576 103.337 21.5541C103.345 21.6179 103.34 21.6829 103.32 21.744C103.3 21.8052 103.266 21.8609 103.221 21.907C103.131 21.9858 103.028 22.0246 102.913 22.0246H101.484C101.42 22.0246 101.362 22.0121 101.31 21.9858C101.258 21.9595 101.207 21.9264 101.155 21.8876L100.692 21.4753C100.524 21.3176 100.318 21.1874 100.074 21.0824C99.8423 20.9773 99.5335 20.9247 99.1479 20.9247C98.6593 20.9247 98.2861 21.0355 98.0283 21.2583C97.9055 21.3521 97.8065 21.474 97.7394 21.6139C97.6724 21.7539 97.6392 21.908 97.6426 22.0635C97.639 22.2733 97.6999 22.4792 97.8168 22.6528C97.9457 22.8104 98.1968 22.96 98.5688 23.1039C98.9409 23.2478 99.5075 23.3986 100.267 23.5551C101.129 23.7127 101.811 23.948 102.313 24.2621C102.828 24.5636 103.189 24.9165 103.394 25.322C103.613 25.7148 103.722 26.1534 103.722 26.6377C103.722 27.227 103.548 27.757 103.201 28.2287C102.866 28.7004 102.365 29.0727 101.696 29.348C101.04 29.6095 100.222 29.7409 99.2451 29.7409H99.2497ZM110.157 29.7409C109.128 29.7409 108.26 29.5581 107.552 29.1915C106.857 28.8249 106.324 28.3075 105.95 27.6405C105.59 26.9723 105.384 26.1934 105.333 25.3037L105.314 24.4402L105.333 23.5768C105.385 22.6734 105.596 21.8944 105.97 21.24C106.351 20.5766 106.914 20.0382 107.59 19.689C108.298 19.3223 109.153 19.1396 110.157 19.1396C111.162 19.1396 112.01 19.3223 112.704 19.689C113.412 20.0556 113.952 20.573 114.325 21.24C114.71 21.8944 114.93 22.6734 114.981 23.5768L115 24.4402L114.981 25.3037C114.929 26.1934 114.717 26.9723 114.344 27.6405C113.981 28.3113 113.422 28.8528 112.743 29.1915C112.048 29.5581 111.187 29.7409 110.157 29.7409ZM110.157 27.7969C110.839 27.7969 111.366 27.5811 111.74 27.1494C112.113 26.7039 112.319 26.0563 112.357 25.2055L112.376 24.4391L112.357 23.6727C112.319 22.8218 112.113 22.18 111.74 21.7482C111.366 21.3028 110.839 21.0801 110.157 21.0801C109.475 21.0801 108.948 21.3028 108.575 21.7482C108.202 22.18 107.996 22.8218 107.958 23.6727L107.939 24.4391L107.958 25.2055C107.996 26.0563 108.202 26.7039 108.575 27.1494C108.948 27.5811 109.475 27.7969 110.157 27.7969ZM22.4002 14.7081C21.3485 15.1608 20.3941 15.8156 19.5898 16.636C18.7815 17.4569 18.1382 18.4281 17.6955 19.4959C17.2344 20.6054 16.9979 21.7968 17 23C16.9979 24.2032 17.2344 25.3946 17.6955 26.5041C18.138 27.5721 18.7813 28.5433 19.5898 29.364C20.3939 30.1846 21.3484 30.8395 22.4002 31.2919C23.4883 31.761 24.6595 32.002 25.8427 32C26.5653 32 27.2835 31.9109 27.9779 31.735L28.1204 31.6973C28.4693 31.5892 28.7743 31.3704 28.9903 31.0733C29.2062 30.7762 29.3216 30.4166 29.3191 30.0481C29.3191 29.0978 28.5592 28.3246 27.625 28.3246C27.5215 28.3245 27.4181 28.3341 27.3163 28.3532C27.2392 28.3675 27.1632 28.3873 27.089 28.4126L27.0663 28.4194C26.666 28.5131 26.2555 28.5599 25.8427 28.5599C22.8299 28.5599 20.3781 26.0655 20.3781 22.9989C20.3781 19.9322 22.8288 17.4378 25.8427 17.4378C28.7209 17.4378 31.1173 19.7541 31.296 22.6505H31.3062L31.3073 22.9052V30.3016C31.3122 30.3722 31.3212 30.4424 31.3344 30.5118C31.408 30.903 31.6142 31.256 31.9176 31.5103C32.221 31.7646 32.6026 31.9042 32.9969 31.9052C33.931 31.9052 34.691 31.132 34.691 30.1817L34.6865 30.0686V30.0527L34.6842 22.9086C34.6749 21.7366 34.4391 20.5778 33.9898 19.4971C33.5469 18.4294 32.9037 17.4582 32.0956 16.6372C31.2916 15.8161 30.3371 15.1609 29.2852 14.7081C28.1971 14.239 27.0259 13.998 25.8427 14C24.6496 14 23.4915 14.2376 22.4002 14.7081Z" fill="white"/>
<g opacity="0.3">
<path d="M907.736 26.4909C906.683 26.4905 905.673 26.0957 904.928 25.3933C904.183 24.6908 903.765 23.7381 903.765 22.7448V22.7448C903.765 21.7517 904.184 20.7994 904.928 20.0972C905.673 19.395 906.683 19.0003 907.736 19H932.561C933.614 19.0003 934.624 19.395 935.369 20.0972C936.114 20.7994 936.532 21.7517 936.532 22.7448V22.7448C936.532 23.7379 936.114 24.6903 935.369 25.3925C934.624 26.0947 933.614 26.4894 932.561 26.4897L907.736 26.4909Z" fill="white"/>
</g>
<g opacity="0.3">
<path d="M863.053 26.492C861.999 26.4917 860.989 26.0969 860.244 25.3944C859.499 24.6919 859.081 23.7393 859.081 22.746V22.746C859.081 21.7529 859.5 20.8006 860.245 20.0983C860.989 19.3961 861.999 19.0015 863.053 19.0012H887.877C888.93 19.0015 889.94 19.3961 890.685 20.0983C891.43 20.8006 891.848 21.7529 891.849 22.746V22.746C891.848 23.7391 891.43 24.6914 890.685 25.3937C889.94 26.0959 888.93 26.4905 887.877 26.4908L863.053 26.492Z" fill="white"/>
</g>
<g opacity="0.3">
<path d="M818.368 26.4909C817.314 26.4905 816.304 26.0957 815.559 25.3933C814.814 24.6908 814.396 23.7381 814.396 22.7448V22.7448C814.396 21.7517 814.815 20.7994 815.56 20.0972C816.304 19.395 817.314 19.0003 818.368 19H843.192C844.245 19.0003 845.255 19.395 846 20.0972C846.745 20.7994 847.163 21.7517 847.164 22.7448V22.7448C847.163 23.7379 846.745 24.6903 846 25.3925C845.255 26.0947 844.245 26.4894 843.192 26.4897L818.368 26.4909Z" fill="white"/>
</g>
<g opacity="0.3">
<path d="M773.682 26.492C772.629 26.4917 771.619 26.0969 770.874 25.3944C770.129 24.6919 769.711 23.7393 769.711 22.746V22.746C769.711 21.7529 770.13 20.8006 770.874 20.0983C771.619 19.3961 772.629 19.0015 773.682 19.0012H798.507C799.56 19.0015 800.57 19.3961 801.315 20.0983C802.06 20.8006 802.478 21.7529 802.479 22.746V22.746C802.478 23.7391 802.06 24.6914 801.315 25.3937C800.57 26.0959 799.56 26.4905 798.507 26.4908L773.682 26.492Z" fill="white"/>
</g>
<g opacity="0.3">
<path d="M728.999 26.4909C727.945 26.4905 726.935 26.0957 726.19 25.3933C725.445 24.6908 725.027 23.7381 725.027 22.7448V22.7448C725.027 21.7517 725.446 20.7994 726.191 20.0972C726.935 19.395 727.945 19.0003 728.999 19H753.823C754.876 19.0003 755.886 19.395 756.631 20.0972C757.376 20.7994 757.795 21.7517 757.795 22.7448V22.7448C757.795 23.7379 757.376 24.6903 756.631 25.3925C755.886 26.0947 754.876 26.4894 753.823 26.4897L728.999 26.4909Z" fill="white"/>
</g>
<g opacity="0.3">
<path d="M684.314 26.492C683.26 26.4917 682.25 26.0969 681.505 25.3944C680.761 24.6919 680.342 23.7393 680.342 22.746V22.746C680.342 21.7529 680.761 20.8006 681.506 20.0983C682.251 19.3961 683.261 19.0015 684.314 19.0012H709.138C710.192 19.0015 711.202 19.3961 711.946 20.0983C712.691 20.8006 713.11 21.7529 713.11 22.746V22.746C713.11 23.7391 712.691 24.6914 711.946 25.3937C711.202 26.0959 710.192 26.4905 709.138 26.4908L684.314 26.492Z" fill="white"/>
</g>
<path d="M965.788 22.628C965.788 23.7429 965.613 24.8512 965.269 25.912C964.924 26.9728 964.414 27.9726 963.758 28.8748C963.103 29.777 962.309 30.5705 961.407 31.226C960.505 31.8818 959.505 32.3915 958.444 32.7361C957.384 33.0805 956.275 33.256 955.16 33.256C954.046 33.256 952.937 33.0805 951.876 32.7361C950.816 32.3915 949.816 31.8818 948.914 31.226C948.011 30.5705 947.218 29.777 946.562 28.8748C945.907 27.9726 945.397 26.9728 945.052 25.912C944.708 24.8512 944.532 23.7429 944.532 22.628C944.532 21.5131 944.708 20.4048 945.052 19.344C945.397 18.2832 945.907 17.2834 946.562 16.3812C947.218 15.479 948.011 14.6856 948.914 14.03C949.816 13.3742 950.816 12.8646 951.876 12.5199C952.937 12.1755 954.046 12 955.16 12C956.275 12 957.384 12.1755 958.444 12.5199C959.505 12.8646 960.505 13.3742 961.407 14.03C962.309 14.6856 963.103 15.479 963.758 16.3812C964.414 17.2834 964.924 18.2832 965.269 19.344C965.613 20.4048 965.788 21.5131 965.788 22.628Z" fill="#5D92FF"/>
<g filter="url(#filter1_d_10_2556)">
<circle cx="941.5" cy="494.5" r="20.5" fill="white"/>
</g>
<defs>
<filter id="filter0_d_10_2556" x="0" y="0" width="988" height="546" filterUnits="userSpaceOnUse" color-interpolation-filters="sRGB">
<feFlood flood-opacity="0" result="BackgroundImageFix"/>
<feColorMatrix in="SourceAlpha" type="matrix" values="0 0 0 0 0 0 0 0 0 0 0 0 0 0 0 0 0 0 127 0" result="hardAlpha"/>
<feMorphology radius="2" operator="dilate" in="SourceAlpha" result="effect1_dropShadow_10_2556"/>
<feOffset dy="4"/>
<feGaussianBlur stdDeviation="2"/>
<feComposite in2="hardAlpha" operator="out"/>
<feColorMatrix type="matrix" values="0 0 0 0 0.7 0 0 0 0 0.7 0 0 0 0 0.7 0 0 0 0.12 0"/>
<feBlend mode="normal" in2="BackgroundImageFix" result="effect1_dropShadow_10_2556"/>
<feBlend mode="normal" in="SourceGraphic" in2="effect1_dropShadow_10_2556" result="shape"/>
</filter>
<filter id="filter1_d_10_2556" x="918" y="471" width="49" height="49" filterUnits="userSpaceOnUse" color-interpolation-filters="sRGB">
<feFlood flood-opacity="0" result="BackgroundImageFix"/>
<feColorMatrix in="SourceAlpha" type="matrix" values="0 0 0 0 0 0 0 0 0 0 0 0 0 0 0 0 0 0 127 0" result="hardAlpha"/>
<feOffset dx="1" dy="1"/>
<feGaussianBlur stdDeviation="2"/>
<feComposite in2="hardAlpha" operator="out"/>
<feColorMatrix type="matrix" values="0 0 0 0 0 0 0 0 0 0 0 0 0 0 0 0 0 0 0.12 0"/>
<feBlend mode="normal" in2="BackgroundImageFix" result="effect1_dropShadow_10_2556"/>
<feBlend mode="normal" in="SourceGraphic" in2="effect1_dropShadow_10_2556" result="shape"/>
</filter>
</defs>
</svg>
