<svg width="120" height="120" viewBox="0 0 120 120" fill="none" xmlns="http://www.w3.org/2000/svg">
<path d="M119.625 59.8125C119.625 66.0866 118.639 72.3257 116.7 78.2946C114.762 84.2634 111.891 89.892 108.201 94.9699C104.512 100.047 100.047 104.512 94.9699 108.201C89.892 111.891 84.2634 114.762 78.2946 116.7C72.3257 118.639 66.0866 119.625 59.8125 119.625C53.5384 119.625 47.2993 118.639 41.3304 116.7C35.3616 114.762 29.733 111.891 24.6551 108.201C19.5782 104.512 15.1133 100.047 11.4242 94.9699C7.73438 89.892 4.86337 84.2634 2.92462 78.2946C0.985875 72.3257 0 66.0866 0 59.8125C0 53.5384 0.987937 47.2993 2.92462 41.3304C4.86131 35.3616 7.73438 29.733 11.4242 24.6551C15.1133 19.5782 19.5782 15.1133 24.6551 11.4242C29.733 7.73438 35.3616 4.86337 41.3304 2.92462C47.2993 0.985875 53.5384 0 59.8125 0C66.0866 0 72.3257 0.987937 78.2946 2.92462C84.2634 4.86131 89.892 7.73438 94.9699 11.4242C100.047 15.1133 104.512 19.5782 108.201 24.6551C111.891 29.733 114.762 35.3616 116.7 41.3304C118.639 47.2993 119.625 53.5384 119.625 59.8125Z" fill="white"/>
<mask id="mask0_30_84" style="mask-type:luminance" maskUnits="userSpaceOnUse" x="0" y="0" width="120" height="120">
<path d="M119.625 59.8125C119.625 66.0866 118.639 72.3257 116.7 78.2946C114.762 84.2634 111.891 89.892 108.201 94.9699C104.512 100.047 100.047 104.512 94.9699 108.201C89.892 111.891 84.2634 114.762 78.2946 116.7C72.3257 118.639 66.0866 119.625 59.8125 119.625C53.5384 119.625 47.2993 118.639 41.3304 116.7C35.3616 114.762 29.733 111.891 24.6551 108.201C19.5782 104.512 15.1133 100.047 11.4242 94.9699C7.73438 89.892 4.86337 84.2634 2.92462 78.2946C0.985875 72.3257 0 66.0866 0 59.8125C0 53.5384 0.987937 47.2993 2.92462 41.3304C4.86131 35.3616 7.73438 29.733 11.4242 24.6551C15.1133 19.5782 19.5782 15.1133 24.6551 11.4242C29.733 7.73438 35.3616 4.86337 41.3304 2.92462C47.2993 0.985875 53.5384 0 59.8125 0C66.0866 0 72.3257 0.987937 78.2946 2.92462C84.2634 4.86131 89.892 7.73438 94.9699 11.4242C100.047 15.1133 104.512 19.5782 108.201 24.6551C111.891 29.733 114.762 35.3616 116.7 41.3304C118.639 47.2993 119.625 53.5384 119.625 59.8125Z" fill="white"/>
</mask>
<g mask="url(#mask0_30_84)">
<path d="M119.625 59.8125C119.625 66.0866 118.639 72.3257 116.7 78.2946C114.762 84.2634 111.891 89.892 108.201 94.9699C104.512 100.047 100.047 104.512 94.9699 108.201C89.892 111.891 84.2634 114.762 78.2946 116.7C72.3257 118.639 66.0866 119.625 59.8125 119.625C53.5384 119.625 47.2993 118.639 41.3304 116.7C35.3616 114.762 29.733 111.891 24.6551 108.201C19.5782 104.512 15.1133 100.047 11.4242 94.9699C7.73438 89.892 4.86337 84.2634 2.92462 78.2946C0.985875 72.3257 0 66.0866 0 59.8125C0 53.5384 0.987937 47.2993 2.92462 41.3304C4.86131 35.3616 7.73438 29.733 11.4242 24.6551C15.1133 19.5782 19.5782 15.1133 24.6551 11.4242C29.733 7.73438 35.3616 4.86337 41.3304 2.92462C47.2993 0.985875 53.5384 0 59.8125 0C66.0866 0 72.3257 0.987937 78.2946 2.92462C84.2634 4.86131 89.892 7.73438 94.9699 11.4242C100.047 15.1133 104.512 19.5782 108.201 24.6551C111.891 29.733 114.762 35.3616 116.7 41.3304C118.639 47.2993 119.625 53.5384 119.625 59.8125Z" stroke="#B7CFFF" stroke-width="2"/>
</g>
<path d="M31.3129 84.5625H41.8131V59.0638L26.8125 47.8129V80.0621C26.812 80.6533 26.928 81.2387 27.154 81.785C27.3799 82.3313 27.7114 82.8276 28.1294 83.2456C28.5474 83.6636 29.0438 83.9951 29.59 84.221C30.1363 84.447 30.7217 84.5631 31.3129 84.5625Z" fill="#4285F4"/>
<path d="M77.812 84.5625H88.3122C88.9033 84.5631 89.4888 84.447 90.0351 84.221C90.5813 83.9951 91.0776 83.6636 91.4957 83.2456C91.9137 82.8276 92.2451 82.3313 92.4711 81.785C92.6971 81.2387 92.8131 80.6533 92.8126 80.0621V47.8129L77.812 59.0638" fill="#34A853"/>
<path d="M77.812 39.5628V59.0638L92.8126 47.8128V41.813C92.8126 36.2484 86.4601 33.0763 82.0133 36.4134" fill="#FBBC04"/>
<path d="M41.813 59.0638V39.5629L59.8124 53.062L77.8139 39.5629V59.0638L59.8124 72.5629" fill="#EA4335"/>
<path d="M26.8125 41.813V47.8128L41.8131 59.0638V39.5628L37.6118 36.4134C33.1567 33.0763 26.8125 36.2484 26.8125 41.813Z" fill="#C5221F"/>
</svg>
