<svg width="247" height="78" viewBox="0 0 247 78" fill="none" xmlns="http://www.w3.org/2000/svg">
<rect width="247" height="78" rx="10" fill="#F5F8FE"/>
<rect width="132" height="9" rx="4.5" transform="matrix(1 0 0 -1 94 35)" fill="#D9DFEC"/>
<rect width="166" height="9" rx="4.5" transform="matrix(1 0 0 -1 60 54)" fill="#D9DFEC"/>
<path d="M50.32 23.16C50.32 24.4355 50.1196 25.704 49.7254 26.9174C49.3313 28.1309 48.7476 29.2752 47.9974 30.3076C47.2474 31.3397 46.3397 32.2474 45.3076 32.9974C44.2752 33.7476 43.1309 34.3313 41.9174 34.7254C40.704 35.1196 39.4355 35.32 38.16 35.32C36.8845 35.32 35.616 35.1196 34.4026 34.7254C33.1891 34.3313 32.0448 33.7476 31.0124 32.9974C29.9803 32.2474 29.0726 31.3397 28.3226 30.3076C27.5724 29.2752 26.9887 28.1309 26.5946 26.9174C26.2004 25.704 26 24.4355 26 23.16C26 21.8845 26.2008 20.616 26.5946 19.4026C26.9883 18.1891 27.5724 17.0448 28.3226 16.0124C29.0726 14.9803 29.9803 14.0726 31.0124 13.3226C32.0448 12.5724 33.1891 11.9887 34.4026 11.5946C35.616 11.2004 36.8845 11 38.16 11C39.4355 11 40.704 11.2008 41.9174 11.5946C43.1309 11.9883 44.2752 12.5724 45.3076 13.3226C46.3397 14.0726 47.2474 14.9803 47.9974 16.0124C48.7476 17.0448 49.3313 18.1891 49.7254 19.4026C50.1196 20.616 50.32 21.8845 50.32 23.16Z" fill="white"/>
<mask id="mask0_28_183" style="mask-type:luminance" maskUnits="userSpaceOnUse" x="26" y="11" width="25" height="25">
<path d="M50.32 23.16C50.32 24.4355 50.1196 25.704 49.7254 26.9174C49.3313 28.1309 48.7476 29.2752 47.9974 30.3076C47.2474 31.3397 46.3397 32.2474 45.3076 32.9974C44.2752 33.7476 43.1309 34.3313 41.9174 34.7254C40.704 35.1196 39.4355 35.32 38.16 35.32C36.8845 35.32 35.616 35.1196 34.4026 34.7254C33.1891 34.3313 32.0448 33.7476 31.0124 32.9974C29.9803 32.2474 29.0726 31.3397 28.3226 30.3076C27.5724 29.2752 26.9887 28.1309 26.5946 26.9174C26.2004 25.704 26 24.4355 26 23.16C26 21.8845 26.2008 20.616 26.5946 19.4026C26.9883 18.1891 27.5724 17.0448 28.3226 16.0124C29.0726 14.9803 29.9803 14.0726 31.0124 13.3226C32.0448 12.5724 33.1891 11.9887 34.4026 11.5946C35.616 11.2004 36.8845 11 38.16 11C39.4355 11 40.704 11.2008 41.9174 11.5946C43.1309 11.9883 44.2752 12.5724 45.3076 13.3226C46.3397 14.0726 47.2474 14.9803 47.9974 16.0124C48.7476 17.0448 49.3313 18.1891 49.7254 19.4026C50.1196 20.616 50.32 21.8845 50.32 23.16Z" fill="white"/>
</mask>
<g mask="url(#mask0_28_183)">
<path d="M50.32 23.16C50.32 24.4355 50.1196 25.704 49.7254 26.9174C49.3313 28.1309 48.7476 29.2752 47.9974 30.3076C47.2474 31.3397 46.3397 32.2474 45.3076 32.9974C44.2752 33.7476 43.1309 34.3313 41.9174 34.7254C40.704 35.1196 39.4355 35.32 38.16 35.32C36.8845 35.32 35.616 35.1196 34.4026 34.7254C33.1891 34.3313 32.0448 33.7476 31.0124 32.9974C29.9803 32.2474 29.0726 31.3397 28.3226 30.3076C27.5724 29.2752 26.9887 28.1309 26.5946 26.9174C26.2004 25.704 26 24.4355 26 23.16C26 21.8845 26.2008 20.616 26.5946 19.4026C26.9883 18.1891 27.5724 17.0448 28.3226 16.0124C29.0726 14.9803 29.9803 14.0726 31.0124 13.3226C32.0448 12.5724 33.1891 11.9887 34.4026 11.5946C35.616 11.2004 36.8845 11 38.16 11C39.4355 11 40.704 11.2008 41.9174 11.5946C43.1309 11.9883 44.2752 12.5724 45.3076 13.3226C46.3397 14.0726 47.2474 14.9803 47.9974 16.0124C48.7476 17.0448 49.3313 18.1891 49.7254 19.4026C50.1196 20.616 50.32 21.8845 50.32 23.16Z" stroke="#B7CFFF" stroke-width="2"/>
</g>
<path d="M32.366 28.1917H34.5007V23.0078L31.4511 20.7205V27.2768C31.4509 27.397 31.4745 27.516 31.5205 27.6271C31.5664 27.7381 31.6338 27.839 31.7188 27.924C31.8038 28.009 31.9047 28.0764 32.0157 28.1223C32.1268 28.1683 32.2458 28.1918 32.366 28.1917Z" fill="#4285F4"/>
<path d="M41.8193 28.1917H43.954C44.0742 28.1918 44.1933 28.1683 44.3043 28.1223C44.4154 28.0764 44.5163 28.009 44.6012 27.924C44.6862 27.839 44.7536 27.7381 44.7996 27.6271C44.8455 27.516 44.8691 27.397 44.869 27.2768V20.7205L41.8193 23.0078" fill="#34A853"/>
<path d="M41.8193 19.0432V23.0077L44.869 20.7204V19.5006C44.869 18.3693 43.5775 17.7244 42.6735 18.4029" fill="#FBBC04"/>
<path d="M34.5006 23.0078V19.0432L38.1599 21.7876L41.8197 19.0432V23.0078L38.1599 25.7522" fill="#EA4335"/>
<path d="M31.451 19.5006V20.7204L34.5007 23.0077V19.0432L33.6466 18.4029C32.7408 17.7244 31.451 18.3693 31.451 19.5006Z" fill="#C5221F"/>
</svg>
