<svg width="247" height="78" viewBox="0 0 247 78" fill="none" xmlns="http://www.w3.org/2000/svg">
<rect width="247" height="78" rx="10" fill="#F5F8FE"/>
<rect width="132" height="9" rx="4.5" transform="matrix(1 0 0 -1 94 35)" fill="#D9DFEC"/>
<rect width="166" height="9" rx="4.5" transform="matrix(1 0 0 -1 60 54)" fill="#D9DFEC"/>
<path d="M26.0024 35.387L27.7203 29.1255C26.6593 27.2878 26.1016 25.205 26.1037 23.0841C26.107 16.4206 31.5395 11 38.2161 11C39.8074 10.9956 41.3839 11.3065 42.8544 11.9147C44.325 12.5229 45.6604 13.4164 46.7837 14.5437C49.0702 16.828 50.3284 19.864 50.3273 23.0928C50.3241 29.7552 44.8905 35.1768 38.2161 35.1768H38.2106C36.189 35.1768 34.1994 34.6713 32.423 33.7062L26.0024 35.387Z" fill="white"/>
<path d="M38.2205 13.0414C32.667 13.0414 28.1517 17.5469 28.1496 23.0851C28.1463 24.9762 28.6801 26.8292 29.6888 28.4305L29.9284 28.8107L28.911 32.5166L32.7215 31.5198L33.0897 31.7377C34.6344 32.6527 36.4067 33.1375 38.2129 33.1375H38.2161C43.7641 33.1375 48.2805 28.632 48.2827 23.0938C48.287 21.7735 48.0289 20.4663 47.5234 19.2463C47.0175 18.0262 46.2743 16.9187 45.3371 15.9881C44.4047 15.0512 43.2958 14.3085 42.0746 13.8029C40.8527 13.2973 39.5428 13.0385 38.2205 13.0414V13.0414Z" fill="url(#paint0_linear_21_3)"/>
<path d="M35.1888 18.0306C34.9622 17.5285 34.7225 17.5176 34.5079 17.5089L33.9273 17.5023C33.774 17.5062 33.6231 17.5418 33.4842 17.6068C33.3452 17.6719 33.2213 17.765 33.1201 17.8803C32.8434 18.1821 32.0613 18.913 32.0613 20.3989C32.0613 21.8847 33.1463 23.3205 33.2966 23.5231C33.4469 23.7257 35.3903 26.8717 38.4666 28.082C41.0233 29.0885 41.5429 28.8881 42.0984 28.838C42.654 28.7879 43.8893 28.107 44.1409 27.4022C44.3926 26.6974 44.3937 26.0928 44.3174 25.9665C44.2412 25.8401 44.0396 25.7649 43.7368 25.6135L41.6692 24.6309C41.3915 24.5296 41.1899 24.4795 40.9884 24.7824C40.7869 25.0852 40.2073 25.7649 40.0309 25.9665C39.8544 26.168 39.6779 26.1931 39.3751 26.0427C39.0723 25.8924 38.0973 25.5732 36.9415 24.5438C36.28 23.9336 35.7125 23.2287 35.2574 22.4523C35.0809 22.1505 35.2389 21.986 35.3903 21.8357C35.5265 21.7006 35.6931 21.4828 35.8445 21.3063C35.996 21.1298 36.0461 21.0034 36.1463 20.803C36.2465 20.6026 36.1964 20.425 36.1212 20.2736C36.0461 20.1222 35.4578 18.6287 35.1888 18.0317" fill="white"/>
<defs>
<linearGradient id="paint0_linear_21_3" x1="210.415" y1="35.2878" x2="212.281" y2="352.083" gradientUnits="userSpaceOnUse">
<stop stop-color="#57D163"/>
<stop offset="1" stop-color="#23B33A"/>
</linearGradient>
</defs>
</svg>
