<svg width="247" height="799" viewBox="0 0 247 799" fill="none" xmlns="http://www.w3.org/2000/svg">
<rect width="247" height="78" rx="10" fill="#F5F8FE"/>
<rect width="132" height="9" rx="4.5" transform="matrix(1 0 0 -1 94 35)" fill="#D9DFEC"/>
<rect width="166" height="9" rx="4.5" transform="matrix(1 0 0 -1 60 54)" fill="#D9DFEC"/>
<path d="M26.0024 35.387L27.7203 29.1255C26.6593 27.2878 26.1016 25.205 26.1037 23.0841C26.107 16.4206 31.5395 11 38.2161 11C39.8074 10.9956 41.3839 11.3065 42.8544 11.9147C44.325 12.5229 45.6604 13.4164 46.7837 14.5437C49.0702 16.828 50.3284 19.864 50.3273 23.0928C50.3241 29.7552 44.8905 35.1768 38.2161 35.1768H38.2106C36.189 35.1768 34.1994 34.6713 32.423 33.7062L26.0024 35.387Z" fill="white"/>
<path d="M38.2205 13.0414C32.667 13.0414 28.1517 17.5469 28.1496 23.0851C28.1463 24.9762 28.6801 26.8292 29.6888 28.4305L29.9284 28.8107L28.911 32.5166L32.7215 31.5198L33.0897 31.7377C34.6344 32.6527 36.4067 33.1375 38.2129 33.1375H38.2161C43.7641 33.1375 48.2805 28.632 48.2827 23.0938C48.287 21.7735 48.0289 20.4663 47.5234 19.2463C47.0175 18.0262 46.2743 16.9187 45.3371 15.9881C44.4047 15.0512 43.2958 14.3085 42.0746 13.8029C40.8527 13.2973 39.5428 13.0385 38.2205 13.0414V13.0414Z" fill="url(#paint0_linear_21_91)"/>
<path d="M35.1888 18.0306C34.9622 17.5285 34.7225 17.5176 34.5079 17.5089L33.9273 17.5023C33.774 17.5062 33.6231 17.5418 33.4842 17.6068C33.3452 17.6719 33.2213 17.765 33.1201 17.8803C32.8434 18.1821 32.0613 18.913 32.0613 20.3989C32.0613 21.8847 33.1463 23.3205 33.2966 23.5231C33.4469 23.7257 35.3903 26.8717 38.4666 28.082C41.0233 29.0885 41.5429 28.8881 42.0984 28.838C42.654 28.7879 43.8893 28.107 44.1409 27.4022C44.3926 26.6974 44.3937 26.0928 44.3174 25.9665C44.2412 25.8401 44.0396 25.7649 43.7368 25.6135L41.6692 24.6309C41.3915 24.5296 41.1899 24.4795 40.9884 24.7824C40.7869 25.0852 40.2073 25.7649 40.0309 25.9665C39.8544 26.168 39.6779 26.1931 39.3751 26.0427C39.0723 25.8924 38.0973 25.5732 36.9415 24.5438C36.28 23.9336 35.7125 23.2287 35.2574 22.4523C35.0809 22.1505 35.2389 21.986 35.3903 21.8357C35.5265 21.7006 35.6931 21.4828 35.8445 21.3063C35.996 21.1298 36.0461 21.0034 36.1463 20.803C36.2465 20.6026 36.1964 20.425 36.1212 20.2736C36.0461 20.1222 35.4578 18.6287 35.1888 18.0317" fill="white"/>
<rect y="103" width="247" height="78" rx="10" fill="#F5F8FE"/>
<rect width="132" height="9" rx="4.5" transform="matrix(1 0 0 -1 94 138)" fill="#D9DFEC"/>
<rect width="166" height="9" rx="4.5" transform="matrix(1 0 0 -1 60 157)" fill="#D9DFEC"/>
<path d="M26.0024 138.387L27.7203 132.126C26.6593 130.288 26.1016 128.205 26.1037 126.084C26.107 119.421 31.5395 114 38.2161 114C39.8074 113.996 41.3839 114.306 42.8544 114.915C44.325 115.523 45.6604 116.416 46.7837 117.544C49.0702 119.828 50.3284 122.864 50.3273 126.093C50.3241 132.755 44.8905 138.177 38.2161 138.177H38.2106C36.189 138.177 34.1994 137.671 32.423 136.706L26.0024 138.387Z" fill="white"/>
<path d="M38.2205 116.041C32.667 116.041 28.1517 120.547 28.1496 126.085C28.1463 127.976 28.6801 129.829 29.6888 131.43L29.9284 131.811L28.911 135.517L32.7215 134.52L33.0897 134.738C34.6344 135.653 36.4067 136.138 38.2129 136.138H38.2161C43.7641 136.138 48.2805 131.632 48.2827 126.094C48.287 124.774 48.0289 123.466 47.5234 122.246C47.0175 121.026 46.2743 119.919 45.3371 118.988C44.4047 118.051 43.2958 117.308 42.0746 116.803C40.8527 116.297 39.5428 116.038 38.2205 116.041V116.041Z" fill="url(#paint1_linear_21_91)"/>
<path d="M35.1888 121.031C34.9622 120.528 34.7225 120.518 34.5079 120.509L33.9273 120.502C33.774 120.506 33.6231 120.542 33.4842 120.607C33.3452 120.672 33.2213 120.765 33.1201 120.88C32.8434 121.182 32.0613 121.913 32.0613 123.399C32.0613 124.885 33.1463 126.32 33.2966 126.523C33.4469 126.726 35.3903 129.872 38.4666 131.082C41.0233 132.089 41.5429 131.888 42.0984 131.838C42.654 131.788 43.8893 131.107 44.1409 130.402C44.3926 129.697 44.3937 129.093 44.3174 128.966C44.2412 128.84 44.0396 128.765 43.7368 128.614L41.6692 127.631C41.3915 127.53 41.1899 127.48 40.9884 127.782C40.7869 128.085 40.2073 128.765 40.0309 128.966C39.8544 129.168 39.6779 129.193 39.3751 129.043C39.0723 128.892 38.0973 128.573 36.9415 127.544C36.28 126.934 35.7125 126.229 35.2574 125.452C35.0809 125.151 35.2389 124.986 35.3903 124.836C35.5265 124.701 35.6931 124.483 35.8445 124.306C35.996 124.13 36.0461 124.003 36.1463 123.803C36.2465 123.603 36.1964 123.425 36.1212 123.274C36.0461 123.122 35.4578 121.629 35.1888 121.032" fill="white"/>
<rect y="206" width="247" height="78" rx="10" fill="#F5F8FE"/>
<rect width="132" height="9" rx="4.5" transform="matrix(1 0 0 -1 94 241)" fill="#D9DFEC"/>
<rect width="166" height="9" rx="4.5" transform="matrix(1 0 0 -1 60 260)" fill="#D9DFEC"/>
<path d="M26.0024 241.387L27.7203 235.126C26.6593 233.288 26.1016 231.205 26.1037 229.084C26.107 222.421 31.5395 217 38.2161 217C39.8074 216.996 41.3839 217.306 42.8544 217.915C44.325 218.523 45.6604 219.416 46.7837 220.544C49.0702 222.828 50.3284 225.864 50.3273 229.093C50.3241 235.755 44.8905 241.177 38.2161 241.177H38.2106C36.189 241.177 34.1994 240.671 32.423 239.706L26.0024 241.387Z" fill="white"/>
<path d="M38.2205 219.041C32.667 219.041 28.1517 223.547 28.1496 229.085C28.1463 230.976 28.6801 232.829 29.6888 234.43L29.9284 234.811L28.911 238.517L32.7215 237.52L33.0897 237.738C34.6344 238.653 36.4067 239.138 38.2129 239.138H38.2161C43.7641 239.138 48.2805 234.632 48.2827 229.094C48.287 227.774 48.0289 226.466 47.5234 225.246C47.0175 224.026 46.2743 222.919 45.3371 221.988C44.4047 221.051 43.2958 220.308 42.0746 219.803C40.8527 219.297 39.5428 219.038 38.2205 219.041V219.041Z" fill="url(#paint2_linear_21_91)"/>
<path d="M35.1888 224.031C34.9622 223.528 34.7225 223.518 34.5079 223.509L33.9273 223.502C33.774 223.506 33.6231 223.542 33.4842 223.607C33.3452 223.672 33.2213 223.765 33.1201 223.88C32.8434 224.182 32.0613 224.913 32.0613 226.399C32.0613 227.885 33.1463 229.32 33.2966 229.523C33.4469 229.726 35.3903 232.872 38.4666 234.082C41.0233 235.089 41.5429 234.888 42.0984 234.838C42.654 234.788 43.8893 234.107 44.1409 233.402C44.3926 232.697 44.3937 232.093 44.3174 231.966C44.2412 231.84 44.0396 231.765 43.7368 231.614L41.6692 230.631C41.3915 230.53 41.1899 230.48 40.9884 230.782C40.7869 231.085 40.2073 231.765 40.0309 231.966C39.8544 232.168 39.6779 232.193 39.3751 232.043C39.0723 231.892 38.0973 231.573 36.9415 230.544C36.28 229.934 35.7125 229.229 35.2574 228.452C35.0809 228.151 35.2389 227.986 35.3903 227.836C35.5265 227.701 35.6931 227.483 35.8445 227.306C35.996 227.13 36.0461 227.003 36.1463 226.803C36.2465 226.603 36.1964 226.425 36.1212 226.274C36.0461 226.122 35.4578 224.629 35.1888 224.032" fill="white"/>
<rect y="309" width="247" height="78" rx="10" fill="#F5F8FE"/>
<rect width="132" height="9" rx="4.5" transform="matrix(1 0 0 -1 94 344)" fill="#D9DFEC"/>
<rect width="166" height="9" rx="4.5" transform="matrix(1 0 0 -1 60 363)" fill="#D9DFEC"/>
<path d="M26.0024 344.387L27.7203 338.126C26.6593 336.288 26.1016 334.205 26.1037 332.084C26.107 325.421 31.5395 320 38.2161 320C39.8074 319.996 41.3839 320.306 42.8544 320.915C44.325 321.523 45.6604 322.416 46.7837 323.544C49.0702 325.828 50.3284 328.864 50.3273 332.093C50.3241 338.755 44.8905 344.177 38.2161 344.177H38.2106C36.189 344.177 34.1994 343.671 32.423 342.706L26.0024 344.387Z" fill="white"/>
<path d="M38.2205 322.042C32.667 322.042 28.1517 326.547 28.1496 332.085C28.1463 333.976 28.6801 335.829 29.6888 337.431L29.9284 337.811L28.911 341.517L32.7215 340.52L33.0897 340.738C34.6344 341.653 36.4067 342.138 38.2129 342.138H38.2161C43.7641 342.138 48.2805 337.632 48.2827 332.094C48.287 330.774 48.0289 329.466 47.5234 328.246C47.0175 327.026 46.2743 325.919 45.3371 324.988C44.4047 324.051 43.2958 323.309 42.0746 322.803C40.8527 322.297 39.5428 322.039 38.2205 322.042V322.042Z" fill="url(#paint3_linear_21_91)"/>
<path d="M35.1888 327.031C34.9622 326.528 34.7225 326.517 34.5079 326.509L33.9273 326.502C33.774 326.506 33.6231 326.542 33.4842 326.607C33.3452 326.672 33.2213 326.765 33.1201 326.88C32.8434 327.182 32.0613 327.913 32.0613 329.399C32.0613 330.885 33.1463 332.32 33.2966 332.523C33.4469 332.726 35.3903 335.872 38.4666 337.082C41.0233 338.088 41.5429 337.888 42.0984 337.838C42.654 337.788 43.8893 337.107 44.1409 336.402C44.3926 335.697 44.3937 335.093 44.3174 334.966C44.2412 334.84 44.0396 334.765 43.7368 334.613L41.6692 333.631C41.3915 333.53 41.1899 333.479 40.9884 333.782C40.7869 334.085 40.2073 334.765 40.0309 334.966C39.8544 335.168 39.6779 335.193 39.3751 335.043C39.0723 334.892 38.0973 334.573 36.9415 333.544C36.28 332.933 35.7125 332.229 35.2574 331.452C35.0809 331.15 35.2389 330.986 35.3903 330.836C35.5265 330.701 35.6931 330.483 35.8445 330.306C35.996 330.13 36.0461 330.003 36.1463 329.803C36.2465 329.602 36.1964 329.425 36.1212 329.273C36.0461 329.122 35.4578 327.629 35.1888 327.032" fill="white"/>
<rect y="412" width="247" height="78" rx="10" fill="#F5F8FE"/>
<rect width="132" height="9" rx="4.5" transform="matrix(1 0 0 -1 94 447)" fill="#D9DFEC"/>
<rect width="166" height="9" rx="4.5" transform="matrix(1 0 0 -1 60 466)" fill="#D9DFEC"/>
<path d="M26.0024 447.387L27.7203 441.126C26.6593 439.288 26.1016 437.205 26.1037 435.084C26.107 428.421 31.5395 423 38.2161 423C39.8074 422.996 41.3839 423.306 42.8544 423.915C44.325 424.523 45.6604 425.416 46.7837 426.544C49.0702 428.828 50.3284 431.864 50.3273 435.093C50.3241 441.755 44.8905 447.177 38.2161 447.177H38.2106C36.189 447.177 34.1994 446.671 32.423 445.706L26.0024 447.387Z" fill="white"/>
<path d="M38.2205 425.042C32.667 425.042 28.1517 429.547 28.1496 435.085C28.1463 436.976 28.6801 438.829 29.6888 440.431L29.9284 440.811L28.911 444.517L32.7215 443.52L33.0897 443.738C34.6344 444.653 36.4067 445.138 38.2129 445.138H38.2161C43.7641 445.138 48.2805 440.632 48.2827 435.094C48.287 433.774 48.0289 432.466 47.5234 431.246C47.0175 430.026 46.2743 428.919 45.3371 427.988C44.4047 427.051 43.2958 426.309 42.0746 425.803C40.8527 425.297 39.5428 425.039 38.2205 425.042V425.042Z" fill="url(#paint4_linear_21_91)"/>
<path d="M35.1888 430.031C34.9622 429.528 34.7225 429.517 34.5079 429.509L33.9273 429.502C33.774 429.506 33.6231 429.542 33.4842 429.607C33.3452 429.672 33.2213 429.765 33.1201 429.88C32.8434 430.182 32.0613 430.913 32.0613 432.399C32.0613 433.885 33.1463 435.32 33.2966 435.523C33.4469 435.726 35.3903 438.872 38.4666 440.082C41.0233 441.088 41.5429 440.888 42.0984 440.838C42.654 440.788 43.8893 440.107 44.1409 439.402C44.3926 438.697 44.3937 438.093 44.3174 437.966C44.2412 437.84 44.0396 437.765 43.7368 437.613L41.6692 436.631C41.3915 436.53 41.1899 436.479 40.9884 436.782C40.7869 437.085 40.2073 437.765 40.0309 437.966C39.8544 438.168 39.6779 438.193 39.3751 438.043C39.0723 437.892 38.0973 437.573 36.9415 436.544C36.28 435.933 35.7125 435.229 35.2574 434.452C35.0809 434.15 35.2389 433.986 35.3903 433.836C35.5265 433.701 35.6931 433.483 35.8445 433.306C35.996 433.13 36.0461 433.003 36.1463 432.803C36.2465 432.602 36.1964 432.425 36.1212 432.273C36.0461 432.122 35.4578 430.629 35.1888 430.032" fill="white"/>
<rect y="515" width="247" height="78" rx="10" fill="#F5F8FE"/>
<rect width="132" height="9" rx="4.5" transform="matrix(1 0 0 -1 94 550)" fill="#D9DFEC"/>
<rect width="166" height="9" rx="4.5" transform="matrix(1 0 0 -1 60 569)" fill="#D9DFEC"/>
<path d="M26.0024 550.387L27.7203 544.126C26.6593 542.288 26.1016 540.205 26.1037 538.084C26.107 531.421 31.5395 526 38.2161 526C39.8074 525.996 41.3839 526.306 42.8544 526.915C44.325 527.523 45.6604 528.416 46.7837 529.544C49.0702 531.828 50.3284 534.864 50.3273 538.093C50.3241 544.755 44.8905 550.177 38.2161 550.177H38.2106C36.189 550.177 34.1994 549.671 32.423 548.706L26.0024 550.387Z" fill="white"/>
<path d="M38.2205 528.042C32.667 528.042 28.1517 532.547 28.1496 538.085C28.1463 539.976 28.6801 541.829 29.6888 543.431L29.9284 543.811L28.911 547.517L32.7215 546.52L33.0897 546.738C34.6344 547.653 36.4067 548.138 38.2129 548.138H38.2161C43.7641 548.138 48.2805 543.632 48.2827 538.094C48.287 536.774 48.0289 535.466 47.5234 534.246C47.0175 533.026 46.2743 531.919 45.3371 530.988C44.4047 530.051 43.2958 529.309 42.0746 528.803C40.8527 528.297 39.5428 528.039 38.2205 528.042V528.042Z" fill="url(#paint5_linear_21_91)"/>
<path d="M35.1888 533.031C34.9622 532.528 34.7225 532.517 34.5079 532.509L33.9273 532.502C33.774 532.506 33.6231 532.542 33.4842 532.607C33.3452 532.672 33.2213 532.765 33.1201 532.88C32.8434 533.182 32.0613 533.913 32.0613 535.399C32.0613 536.885 33.1463 538.32 33.2966 538.523C33.4469 538.726 35.3903 541.872 38.4666 543.082C41.0233 544.088 41.5429 543.888 42.0984 543.838C42.654 543.788 43.8893 543.107 44.1409 542.402C44.3926 541.697 44.3937 541.093 44.3174 540.966C44.2412 540.84 44.0396 540.765 43.7368 540.613L41.6692 539.631C41.3915 539.53 41.1899 539.479 40.9884 539.782C40.7869 540.085 40.2073 540.765 40.0309 540.966C39.8544 541.168 39.6779 541.193 39.3751 541.043C39.0723 540.892 38.0973 540.573 36.9415 539.544C36.28 538.933 35.7125 538.229 35.2574 537.452C35.0809 537.15 35.2389 536.986 35.3903 536.836C35.5265 536.701 35.6931 536.483 35.8445 536.306C35.996 536.13 36.0461 536.003 36.1463 535.803C36.2465 535.602 36.1964 535.425 36.1212 535.273C36.0461 535.122 35.4578 533.629 35.1888 533.032" fill="white"/>
<rect y="618" width="247" height="78" rx="10" fill="#F5F8FE"/>
<rect width="132" height="9" rx="4.5" transform="matrix(1 0 0 -1 94 653)" fill="#D9DFEC"/>
<rect width="166" height="9" rx="4.5" transform="matrix(1 0 0 -1 60 672)" fill="#D9DFEC"/>
<path d="M26.0024 653.387L27.7203 647.126C26.6593 645.288 26.1016 643.205 26.1037 641.084C26.107 634.421 31.5395 629 38.2161 629C39.8074 628.996 41.3839 629.306 42.8544 629.915C44.325 630.523 45.6604 631.416 46.7837 632.544C49.0702 634.828 50.3284 637.864 50.3273 641.093C50.3241 647.755 44.8905 653.177 38.2161 653.177H38.2106C36.189 653.177 34.1994 652.671 32.423 651.706L26.0024 653.387Z" fill="white"/>
<path d="M38.2205 631.042C32.667 631.042 28.1517 635.547 28.1496 641.085C28.1463 642.976 28.6801 644.829 29.6888 646.431L29.9284 646.811L28.911 650.517L32.7215 649.52L33.0897 649.738C34.6344 650.653 36.4067 651.138 38.2129 651.138H38.2161C43.7641 651.138 48.2805 646.632 48.2827 641.094C48.287 639.774 48.0289 638.466 47.5234 637.246C47.0175 636.026 46.2743 634.919 45.3371 633.988C44.4047 633.051 43.2958 632.309 42.0746 631.803C40.8527 631.297 39.5428 631.039 38.2205 631.042V631.042Z" fill="url(#paint6_linear_21_91)"/>
<path d="M35.1888 636.031C34.9622 635.528 34.7225 635.517 34.5079 635.509L33.9273 635.502C33.774 635.506 33.6231 635.542 33.4842 635.607C33.3452 635.672 33.2213 635.765 33.1201 635.88C32.8434 636.182 32.0613 636.913 32.0613 638.399C32.0613 639.885 33.1463 641.32 33.2966 641.523C33.4469 641.726 35.3903 644.872 38.4666 646.082C41.0233 647.088 41.5429 646.888 42.0984 646.838C42.654 646.788 43.8893 646.107 44.1409 645.402C44.3926 644.697 44.3937 644.093 44.3174 643.966C44.2412 643.84 44.0396 643.765 43.7368 643.613L41.6692 642.631C41.3915 642.53 41.1899 642.479 40.9884 642.782C40.7869 643.085 40.2073 643.765 40.0309 643.966C39.8544 644.168 39.6779 644.193 39.3751 644.043C39.0723 643.892 38.0973 643.573 36.9415 642.544C36.28 641.933 35.7125 641.229 35.2574 640.452C35.0809 640.15 35.2389 639.986 35.3903 639.836C35.5265 639.701 35.6931 639.483 35.8445 639.306C35.996 639.13 36.0461 639.003 36.1463 638.803C36.2465 638.602 36.1964 638.425 36.1212 638.273C36.0461 638.122 35.4578 636.629 35.1888 636.032" fill="white"/>
<rect y="721" width="247" height="78" rx="10" fill="#F5F8FE"/>
<rect width="132" height="9" rx="4.5" transform="matrix(1 0 0 -1 94 756)" fill="#D9DFEC"/>
<rect width="166" height="9" rx="4.5" transform="matrix(1 0 0 -1 60 775)" fill="#D9DFEC"/>
<path d="M26.0024 756.387L27.7203 750.126C26.6593 748.288 26.1016 746.205 26.1037 744.084C26.107 737.421 31.5395 732 38.2161 732C39.8074 731.996 41.3839 732.306 42.8544 732.915C44.325 733.523 45.6604 734.416 46.7837 735.544C49.0702 737.828 50.3284 740.864 50.3273 744.093C50.3241 750.755 44.8905 756.177 38.2161 756.177H38.2106C36.189 756.177 34.1994 755.671 32.423 754.706L26.0024 756.387Z" fill="white"/>
<path d="M38.2205 734.042C32.667 734.042 28.1517 738.547 28.1496 744.085C28.1463 745.976 28.6801 747.829 29.6888 749.431L29.9284 749.811L28.911 753.517L32.7215 752.52L33.0897 752.738C34.6344 753.653 36.4067 754.138 38.2129 754.138H38.2161C43.7641 754.138 48.2805 749.632 48.2827 744.094C48.287 742.774 48.0289 741.466 47.5234 740.246C47.0175 739.026 46.2743 737.919 45.3371 736.988C44.4047 736.051 43.2958 735.309 42.0746 734.803C40.8527 734.297 39.5428 734.039 38.2205 734.042V734.042Z" fill="url(#paint7_linear_21_91)"/>
<path d="M35.1888 739.031C34.9622 738.528 34.7225 738.517 34.5079 738.509L33.9273 738.502C33.774 738.506 33.6231 738.542 33.4842 738.607C33.3452 738.672 33.2213 738.765 33.1201 738.88C32.8434 739.182 32.0613 739.913 32.0613 741.399C32.0613 742.885 33.1463 744.32 33.2966 744.523C33.4469 744.726 35.3903 747.872 38.4666 749.082C41.0233 750.088 41.5429 749.888 42.0984 749.838C42.654 749.788 43.8893 749.107 44.1409 748.402C44.3926 747.697 44.3937 747.093 44.3174 746.966C44.2412 746.84 44.0396 746.765 43.7368 746.613L41.6692 745.631C41.3915 745.53 41.1899 745.479 40.9884 745.782C40.7869 746.085 40.2073 746.765 40.0309 746.966C39.8544 747.168 39.6779 747.193 39.3751 747.043C39.0723 746.892 38.0973 746.573 36.9415 745.544C36.28 744.933 35.7125 744.229 35.2574 743.452C35.0809 743.15 35.2389 742.986 35.3903 742.836C35.5265 742.701 35.6931 742.483 35.8445 742.306C35.996 742.13 36.0461 742.003 36.1463 741.803C36.2465 741.602 36.1964 741.425 36.1212 741.273C36.0461 741.122 35.4578 739.629 35.1888 739.032" fill="white"/>
<defs>
<linearGradient id="paint0_linear_21_91" x1="210.415" y1="35.2878" x2="212.281" y2="352.083" gradientUnits="userSpaceOnUse">
<stop stop-color="#57D163"/>
<stop offset="1" stop-color="#23B33A"/>
</linearGradient>
<linearGradient id="paint1_linear_21_91" x1="210.415" y1="138.288" x2="212.281" y2="455.083" gradientUnits="userSpaceOnUse">
<stop stop-color="#57D163"/>
<stop offset="1" stop-color="#23B33A"/>
</linearGradient>
<linearGradient id="paint2_linear_21_91" x1="210.415" y1="241.288" x2="212.281" y2="558.083" gradientUnits="userSpaceOnUse">
<stop stop-color="#57D163"/>
<stop offset="1" stop-color="#23B33A"/>
</linearGradient>
<linearGradient id="paint3_linear_21_91" x1="210.415" y1="344.288" x2="212.281" y2="661.083" gradientUnits="userSpaceOnUse">
<stop stop-color="#57D163"/>
<stop offset="1" stop-color="#23B33A"/>
</linearGradient>
<linearGradient id="paint4_linear_21_91" x1="210.415" y1="447.288" x2="212.281" y2="764.083" gradientUnits="userSpaceOnUse">
<stop stop-color="#57D163"/>
<stop offset="1" stop-color="#23B33A"/>
</linearGradient>
<linearGradient id="paint5_linear_21_91" x1="210.415" y1="550.288" x2="212.281" y2="867.083" gradientUnits="userSpaceOnUse">
<stop stop-color="#57D163"/>
<stop offset="1" stop-color="#23B33A"/>
</linearGradient>
<linearGradient id="paint6_linear_21_91" x1="210.415" y1="653.288" x2="212.281" y2="970.083" gradientUnits="userSpaceOnUse">
<stop stop-color="#57D163"/>
<stop offset="1" stop-color="#23B33A"/>
</linearGradient>
<linearGradient id="paint7_linear_21_91" x1="210.415" y1="756.288" x2="212.281" y2="1073.08" gradientUnits="userSpaceOnUse">
<stop stop-color="#57D163"/>
<stop offset="1" stop-color="#23B33A"/>
</linearGradient>
</defs>
</svg>
