<svg width="247" height="1623" viewBox="0 0 247 1623" fill="none" xmlns="http://www.w3.org/2000/svg">
<rect width="247" height="78" rx="10" fill="#F5F8FE"/>
<rect width="132" height="9" rx="4.5" transform="matrix(1 0 0 -1 94 35)" fill="#D9DFEC"/>
<rect width="166" height="9" rx="4.5" transform="matrix(1 0 0 -1 60 54)" fill="#D9DFEC"/>
<path d="M26.0024 35.387L27.7203 29.1255C26.6593 27.2878 26.1016 25.205 26.1037 23.0841C26.107 16.4206 31.5395 11 38.2161 11C39.8074 10.9956 41.3839 11.3065 42.8544 11.9147C44.325 12.5229 45.6604 13.4164 46.7837 14.5437C49.0702 16.828 50.3284 19.864 50.3273 23.0928C50.3241 29.7552 44.8905 35.1768 38.2161 35.1768H38.2106C36.189 35.1768 34.1994 34.6713 32.423 33.7062L26.0024 35.387Z" fill="white"/>
<path d="M38.2205 13.0414C32.667 13.0414 28.1517 17.5469 28.1496 23.0851C28.1463 24.9762 28.6801 26.8292 29.6888 28.4305L29.9284 28.8107L28.911 32.5166L32.7215 31.5198L33.0897 31.7377C34.6344 32.6527 36.4067 33.1375 38.2129 33.1375H38.2161C43.7641 33.1375 48.2805 28.632 48.2827 23.0938C48.287 21.7735 48.0289 20.4663 47.5234 19.2463C47.0175 18.0262 46.2743 16.9187 45.3371 15.9881C44.4047 15.0512 43.2958 14.3085 42.0746 13.8029C40.8527 13.2973 39.5428 13.0385 38.2205 13.0414V13.0414Z" fill="url(#paint0_linear_21_181)"/>
<path d="M35.1888 18.0306C34.9622 17.5285 34.7225 17.5176 34.5079 17.5089L33.9273 17.5023C33.774 17.5062 33.6231 17.5418 33.4842 17.6068C33.3452 17.6719 33.2213 17.765 33.1201 17.8803C32.8434 18.1821 32.0613 18.913 32.0613 20.3989C32.0613 21.8847 33.1463 23.3205 33.2966 23.5231C33.4469 23.7257 35.3903 26.8717 38.4666 28.082C41.0233 29.0885 41.5429 28.8881 42.0984 28.838C42.654 28.7879 43.8893 28.107 44.1409 27.4022C44.3926 26.6974 44.3937 26.0928 44.3174 25.9665C44.2412 25.8401 44.0396 25.7649 43.7368 25.6135L41.6692 24.6309C41.3915 24.5296 41.1899 24.4795 40.9884 24.7824C40.7869 25.0852 40.2073 25.7649 40.0309 25.9665C39.8544 26.168 39.6779 26.1931 39.3751 26.0427C39.0723 25.8924 38.0973 25.5732 36.9415 24.5438C36.28 23.9336 35.7125 23.2287 35.2574 22.4523C35.0809 22.1505 35.2389 21.986 35.3903 21.8357C35.5265 21.7006 35.6931 21.4828 35.8445 21.3063C35.996 21.1298 36.0461 21.0034 36.1463 20.803C36.2465 20.6026 36.1964 20.425 36.1212 20.2736C36.0461 20.1222 35.4578 18.6287 35.1888 18.0317" fill="white"/>
<rect y="103" width="247" height="78" rx="10" fill="#F5F8FE"/>
<rect width="132" height="9" rx="4.5" transform="matrix(1 0 0 -1 94 138)" fill="#D9DFEC"/>
<rect width="166" height="9" rx="4.5" transform="matrix(1 0 0 -1 60 157)" fill="#D9DFEC"/>
<path d="M26.0024 138.387L27.7203 132.126C26.6593 130.288 26.1016 128.205 26.1037 126.084C26.107 119.421 31.5395 114 38.2161 114C39.8074 113.996 41.3839 114.306 42.8544 114.915C44.325 115.523 45.6604 116.416 46.7837 117.544C49.0702 119.828 50.3284 122.864 50.3273 126.093C50.3241 132.755 44.8905 138.177 38.2161 138.177H38.2106C36.189 138.177 34.1994 137.671 32.423 136.706L26.0024 138.387Z" fill="white"/>
<path d="M38.2205 116.041C32.667 116.041 28.1517 120.547 28.1496 126.085C28.1463 127.976 28.6801 129.829 29.6888 131.43L29.9284 131.811L28.911 135.517L32.7215 134.52L33.0897 134.738C34.6344 135.653 36.4067 136.138 38.2129 136.138H38.2161C43.7641 136.138 48.2805 131.632 48.2827 126.094C48.287 124.774 48.0289 123.466 47.5234 122.246C47.0175 121.026 46.2743 119.919 45.3371 118.988C44.4047 118.051 43.2958 117.308 42.0746 116.803C40.8527 116.297 39.5428 116.038 38.2205 116.041V116.041Z" fill="url(#paint1_linear_21_181)"/>
<path d="M35.1888 121.031C34.9622 120.528 34.7225 120.518 34.5079 120.509L33.9273 120.502C33.774 120.506 33.6231 120.542 33.4842 120.607C33.3452 120.672 33.2213 120.765 33.1201 120.88C32.8434 121.182 32.0613 121.913 32.0613 123.399C32.0613 124.885 33.1463 126.32 33.2966 126.523C33.4469 126.726 35.3903 129.872 38.4666 131.082C41.0233 132.089 41.5429 131.888 42.0984 131.838C42.654 131.788 43.8893 131.107 44.1409 130.402C44.3926 129.697 44.3937 129.093 44.3174 128.966C44.2412 128.84 44.0396 128.765 43.7368 128.614L41.6692 127.631C41.3915 127.53 41.1899 127.48 40.9884 127.782C40.7869 128.085 40.2073 128.765 40.0309 128.966C39.8544 129.168 39.6779 129.193 39.3751 129.043C39.0723 128.892 38.0973 128.573 36.9415 127.544C36.28 126.934 35.7125 126.229 35.2574 125.452C35.0809 125.151 35.2389 124.986 35.3903 124.836C35.5265 124.701 35.6931 124.483 35.8445 124.306C35.996 124.13 36.0461 124.003 36.1463 123.803C36.2465 123.603 36.1964 123.425 36.1212 123.274C36.0461 123.122 35.4578 121.629 35.1888 121.032" fill="white"/>
<rect y="206" width="247" height="78" rx="10" fill="#F5F8FE"/>
<rect width="132" height="9" rx="4.5" transform="matrix(1 0 0 -1 94 241)" fill="#D9DFEC"/>
<rect width="166" height="9" rx="4.5" transform="matrix(1 0 0 -1 60 260)" fill="#D9DFEC"/>
<path d="M26.0024 241.387L27.7203 235.126C26.6593 233.288 26.1016 231.205 26.1037 229.084C26.107 222.421 31.5395 217 38.2161 217C39.8074 216.996 41.3839 217.306 42.8544 217.915C44.325 218.523 45.6604 219.416 46.7837 220.544C49.0702 222.828 50.3284 225.864 50.3273 229.093C50.3241 235.755 44.8905 241.177 38.2161 241.177H38.2106C36.189 241.177 34.1994 240.671 32.423 239.706L26.0024 241.387Z" fill="white"/>
<path d="M38.2205 219.041C32.667 219.041 28.1517 223.547 28.1496 229.085C28.1463 230.976 28.6801 232.829 29.6888 234.43L29.9284 234.811L28.911 238.517L32.7215 237.52L33.0897 237.738C34.6344 238.653 36.4067 239.138 38.2129 239.138H38.2161C43.7641 239.138 48.2805 234.632 48.2827 229.094C48.287 227.774 48.0289 226.466 47.5234 225.246C47.0175 224.026 46.2743 222.919 45.3371 221.988C44.4047 221.051 43.2958 220.308 42.0746 219.803C40.8527 219.297 39.5428 219.038 38.2205 219.041V219.041Z" fill="url(#paint2_linear_21_181)"/>
<path d="M35.1888 224.031C34.9622 223.528 34.7225 223.518 34.5079 223.509L33.9273 223.502C33.774 223.506 33.6231 223.542 33.4842 223.607C33.3452 223.672 33.2213 223.765 33.1201 223.88C32.8434 224.182 32.0613 224.913 32.0613 226.399C32.0613 227.885 33.1463 229.32 33.2966 229.523C33.4469 229.726 35.3903 232.872 38.4666 234.082C41.0233 235.089 41.5429 234.888 42.0984 234.838C42.654 234.788 43.8893 234.107 44.1409 233.402C44.3926 232.697 44.3937 232.093 44.3174 231.966C44.2412 231.84 44.0396 231.765 43.7368 231.614L41.6692 230.631C41.3915 230.53 41.1899 230.48 40.9884 230.782C40.7869 231.085 40.2073 231.765 40.0309 231.966C39.8544 232.168 39.6779 232.193 39.3751 232.043C39.0723 231.892 38.0973 231.573 36.9415 230.544C36.28 229.934 35.7125 229.229 35.2574 228.452C35.0809 228.151 35.2389 227.986 35.3903 227.836C35.5265 227.701 35.6931 227.483 35.8445 227.306C35.996 227.13 36.0461 227.003 36.1463 226.803C36.2465 226.603 36.1964 226.425 36.1212 226.274C36.0461 226.122 35.4578 224.629 35.1888 224.032" fill="white"/>
<rect y="309" width="247" height="78" rx="10" fill="#F5F8FE"/>
<rect width="132" height="9" rx="4.5" transform="matrix(1 0 0 -1 94 344)" fill="#D9DFEC"/>
<rect width="166" height="9" rx="4.5" transform="matrix(1 0 0 -1 60 363)" fill="#D9DFEC"/>
<path d="M26.0024 344.387L27.7203 338.126C26.6593 336.288 26.1016 334.205 26.1037 332.084C26.107 325.421 31.5395 320 38.2161 320C39.8074 319.996 41.3839 320.306 42.8544 320.915C44.325 321.523 45.6604 322.416 46.7837 323.544C49.0702 325.828 50.3284 328.864 50.3273 332.093C50.3241 338.755 44.8905 344.177 38.2161 344.177H38.2106C36.189 344.177 34.1994 343.671 32.423 342.706L26.0024 344.387Z" fill="white"/>
<path d="M38.2205 322.042C32.667 322.042 28.1517 326.547 28.1496 332.085C28.1463 333.976 28.6801 335.829 29.6888 337.431L29.9284 337.811L28.911 341.517L32.7215 340.52L33.0897 340.738C34.6344 341.653 36.4067 342.138 38.2129 342.138H38.2161C43.7641 342.138 48.2805 337.632 48.2827 332.094C48.287 330.774 48.0289 329.466 47.5234 328.246C47.0175 327.026 46.2743 325.919 45.3371 324.988C44.4047 324.051 43.2958 323.309 42.0746 322.803C40.8527 322.297 39.5428 322.039 38.2205 322.042V322.042Z" fill="url(#paint3_linear_21_181)"/>
<path d="M35.1888 327.031C34.9622 326.528 34.7225 326.517 34.5079 326.509L33.9273 326.502C33.774 326.506 33.6231 326.542 33.4842 326.607C33.3452 326.672 33.2213 326.765 33.1201 326.88C32.8434 327.182 32.0613 327.913 32.0613 329.399C32.0613 330.885 33.1463 332.32 33.2966 332.523C33.4469 332.726 35.3903 335.872 38.4666 337.082C41.0233 338.088 41.5429 337.888 42.0984 337.838C42.654 337.788 43.8893 337.107 44.1409 336.402C44.3926 335.697 44.3937 335.093 44.3174 334.966C44.2412 334.84 44.0396 334.765 43.7368 334.613L41.6692 333.631C41.3915 333.53 41.1899 333.479 40.9884 333.782C40.7869 334.085 40.2073 334.765 40.0309 334.966C39.8544 335.168 39.6779 335.193 39.3751 335.043C39.0723 334.892 38.0973 334.573 36.9415 333.544C36.28 332.933 35.7125 332.229 35.2574 331.452C35.0809 331.15 35.2389 330.986 35.3903 330.836C35.5265 330.701 35.6931 330.483 35.8445 330.306C35.996 330.13 36.0461 330.003 36.1463 329.803C36.2465 329.602 36.1964 329.425 36.1212 329.273C36.0461 329.122 35.4578 327.629 35.1888 327.032" fill="white"/>
<rect y="412" width="247" height="78" rx="10" fill="#F5F8FE"/>
<rect width="132" height="9" rx="4.5" transform="matrix(1 0 0 -1 94 447)" fill="#D9DFEC"/>
<rect width="166" height="9" rx="4.5" transform="matrix(1 0 0 -1 60 466)" fill="#D9DFEC"/>
<path d="M26.0024 447.387L27.7203 441.126C26.6593 439.288 26.1016 437.205 26.1037 435.084C26.107 428.421 31.5395 423 38.2161 423C39.8074 422.996 41.3839 423.306 42.8544 423.915C44.325 424.523 45.6604 425.416 46.7837 426.544C49.0702 428.828 50.3284 431.864 50.3273 435.093C50.3241 441.755 44.8905 447.177 38.2161 447.177H38.2106C36.189 447.177 34.1994 446.671 32.423 445.706L26.0024 447.387Z" fill="white"/>
<path d="M38.2205 425.042C32.667 425.042 28.1517 429.547 28.1496 435.085C28.1463 436.976 28.6801 438.829 29.6888 440.431L29.9284 440.811L28.911 444.517L32.7215 443.52L33.0897 443.738C34.6344 444.653 36.4067 445.138 38.2129 445.138H38.2161C43.7641 445.138 48.2805 440.632 48.2827 435.094C48.287 433.774 48.0289 432.466 47.5234 431.246C47.0175 430.026 46.2743 428.919 45.3371 427.988C44.4047 427.051 43.2958 426.309 42.0746 425.803C40.8527 425.297 39.5428 425.039 38.2205 425.042V425.042Z" fill="url(#paint4_linear_21_181)"/>
<path d="M35.1888 430.031C34.9622 429.528 34.7225 429.517 34.5079 429.509L33.9273 429.502C33.774 429.506 33.6231 429.542 33.4842 429.607C33.3452 429.672 33.2213 429.765 33.1201 429.88C32.8434 430.182 32.0613 430.913 32.0613 432.399C32.0613 433.885 33.1463 435.32 33.2966 435.523C33.4469 435.726 35.3903 438.872 38.4666 440.082C41.0233 441.088 41.5429 440.888 42.0984 440.838C42.654 440.788 43.8893 440.107 44.1409 439.402C44.3926 438.697 44.3937 438.093 44.3174 437.966C44.2412 437.84 44.0396 437.765 43.7368 437.613L41.6692 436.631C41.3915 436.53 41.1899 436.479 40.9884 436.782C40.7869 437.085 40.2073 437.765 40.0309 437.966C39.8544 438.168 39.6779 438.193 39.3751 438.043C39.0723 437.892 38.0973 437.573 36.9415 436.544C36.28 435.933 35.7125 435.229 35.2574 434.452C35.0809 434.15 35.2389 433.986 35.3903 433.836C35.5265 433.701 35.6931 433.483 35.8445 433.306C35.996 433.13 36.0461 433.003 36.1463 432.803C36.2465 432.602 36.1964 432.425 36.1212 432.273C36.0461 432.122 35.4578 430.629 35.1888 430.032" fill="white"/>
<rect y="515" width="247" height="78" rx="10" fill="#F5F8FE"/>
<rect width="132" height="9" rx="4.5" transform="matrix(1 0 0 -1 94 550)" fill="#D9DFEC"/>
<rect width="166" height="9" rx="4.5" transform="matrix(1 0 0 -1 60 569)" fill="#D9DFEC"/>
<path d="M26.0024 550.387L27.7203 544.126C26.6593 542.288 26.1016 540.205 26.1037 538.084C26.107 531.421 31.5395 526 38.2161 526C39.8074 525.996 41.3839 526.306 42.8544 526.915C44.325 527.523 45.6604 528.416 46.7837 529.544C49.0702 531.828 50.3284 534.864 50.3273 538.093C50.3241 544.755 44.8905 550.177 38.2161 550.177H38.2106C36.189 550.177 34.1994 549.671 32.423 548.706L26.0024 550.387Z" fill="white"/>
<path d="M38.2205 528.042C32.667 528.042 28.1517 532.547 28.1496 538.085C28.1463 539.976 28.6801 541.829 29.6888 543.431L29.9284 543.811L28.911 547.517L32.7215 546.52L33.0897 546.738C34.6344 547.653 36.4067 548.138 38.2129 548.138H38.2161C43.7641 548.138 48.2805 543.632 48.2827 538.094C48.287 536.774 48.0289 535.466 47.5234 534.246C47.0175 533.026 46.2743 531.919 45.3371 530.988C44.4047 530.051 43.2958 529.309 42.0746 528.803C40.8527 528.297 39.5428 528.039 38.2205 528.042V528.042Z" fill="url(#paint5_linear_21_181)"/>
<path d="M35.1888 533.031C34.9622 532.528 34.7225 532.517 34.5079 532.509L33.9273 532.502C33.774 532.506 33.6231 532.542 33.4842 532.607C33.3452 532.672 33.2213 532.765 33.1201 532.88C32.8434 533.182 32.0613 533.913 32.0613 535.399C32.0613 536.885 33.1463 538.32 33.2966 538.523C33.4469 538.726 35.3903 541.872 38.4666 543.082C41.0233 544.088 41.5429 543.888 42.0984 543.838C42.654 543.788 43.8893 543.107 44.1409 542.402C44.3926 541.697 44.3937 541.093 44.3174 540.966C44.2412 540.84 44.0396 540.765 43.7368 540.613L41.6692 539.631C41.3915 539.53 41.1899 539.479 40.9884 539.782C40.7869 540.085 40.2073 540.765 40.0309 540.966C39.8544 541.168 39.6779 541.193 39.3751 541.043C39.0723 540.892 38.0973 540.573 36.9415 539.544C36.28 538.933 35.7125 538.229 35.2574 537.452C35.0809 537.15 35.2389 536.986 35.3903 536.836C35.5265 536.701 35.6931 536.483 35.8445 536.306C35.996 536.13 36.0461 536.003 36.1463 535.803C36.2465 535.602 36.1964 535.425 36.1212 535.273C36.0461 535.122 35.4578 533.629 35.1888 533.032" fill="white"/>
<rect y="618" width="247" height="78" rx="10" fill="#F5F8FE"/>
<rect width="132" height="9" rx="4.5" transform="matrix(1 0 0 -1 94 653)" fill="#D9DFEC"/>
<rect width="166" height="9" rx="4.5" transform="matrix(1 0 0 -1 60 672)" fill="#D9DFEC"/>
<path d="M26.0024 653.387L27.7203 647.126C26.6593 645.288 26.1016 643.205 26.1037 641.084C26.107 634.421 31.5395 629 38.2161 629C39.8074 628.996 41.3839 629.306 42.8544 629.915C44.325 630.523 45.6604 631.416 46.7837 632.544C49.0702 634.828 50.3284 637.864 50.3273 641.093C50.3241 647.755 44.8905 653.177 38.2161 653.177H38.2106C36.189 653.177 34.1994 652.671 32.423 651.706L26.0024 653.387Z" fill="white"/>
<path d="M38.2205 631.042C32.667 631.042 28.1517 635.547 28.1496 641.085C28.1463 642.976 28.6801 644.829 29.6888 646.431L29.9284 646.811L28.911 650.517L32.7215 649.52L33.0897 649.738C34.6344 650.653 36.4067 651.138 38.2129 651.138H38.2161C43.7641 651.138 48.2805 646.632 48.2827 641.094C48.287 639.774 48.0289 638.466 47.5234 637.246C47.0175 636.026 46.2743 634.919 45.3371 633.988C44.4047 633.051 43.2958 632.309 42.0746 631.803C40.8527 631.297 39.5428 631.039 38.2205 631.042V631.042Z" fill="url(#paint6_linear_21_181)"/>
<path d="M35.1888 636.031C34.9622 635.528 34.7225 635.517 34.5079 635.509L33.9273 635.502C33.774 635.506 33.6231 635.542 33.4842 635.607C33.3452 635.672 33.2213 635.765 33.1201 635.88C32.8434 636.182 32.0613 636.913 32.0613 638.399C32.0613 639.885 33.1463 641.32 33.2966 641.523C33.4469 641.726 35.3903 644.872 38.4666 646.082C41.0233 647.088 41.5429 646.888 42.0984 646.838C42.654 646.788 43.8893 646.107 44.1409 645.402C44.3926 644.697 44.3937 644.093 44.3174 643.966C44.2412 643.84 44.0396 643.765 43.7368 643.613L41.6692 642.631C41.3915 642.53 41.1899 642.479 40.9884 642.782C40.7869 643.085 40.2073 643.765 40.0309 643.966C39.8544 644.168 39.6779 644.193 39.3751 644.043C39.0723 643.892 38.0973 643.573 36.9415 642.544C36.28 641.933 35.7125 641.229 35.2574 640.452C35.0809 640.15 35.2389 639.986 35.3903 639.836C35.5265 639.701 35.6931 639.483 35.8445 639.306C35.996 639.13 36.0461 639.003 36.1463 638.803C36.2465 638.602 36.1964 638.425 36.1212 638.273C36.0461 638.122 35.4578 636.629 35.1888 636.032" fill="white"/>
<rect y="721" width="247" height="78" rx="10" fill="#F5F8FE"/>
<rect width="132" height="9" rx="4.5" transform="matrix(1 0 0 -1 94 756)" fill="#D9DFEC"/>
<rect width="166" height="9" rx="4.5" transform="matrix(1 0 0 -1 60 775)" fill="#D9DFEC"/>
<path d="M26.0024 756.387L27.7203 750.126C26.6593 748.288 26.1016 746.205 26.1037 744.084C26.107 737.421 31.5395 732 38.2161 732C39.8074 731.996 41.3839 732.306 42.8544 732.915C44.325 733.523 45.6604 734.416 46.7837 735.544C49.0702 737.828 50.3284 740.864 50.3273 744.093C50.3241 750.755 44.8905 756.177 38.2161 756.177H38.2106C36.189 756.177 34.1994 755.671 32.423 754.706L26.0024 756.387Z" fill="white"/>
<path d="M38.2205 734.042C32.667 734.042 28.1517 738.547 28.1496 744.085C28.1463 745.976 28.6801 747.829 29.6888 749.431L29.9284 749.811L28.911 753.517L32.7215 752.52L33.0897 752.738C34.6344 753.653 36.4067 754.138 38.2129 754.138H38.2161C43.7641 754.138 48.2805 749.632 48.2827 744.094C48.287 742.774 48.0289 741.466 47.5234 740.246C47.0175 739.026 46.2743 737.919 45.3371 736.988C44.4047 736.051 43.2958 735.309 42.0746 734.803C40.8527 734.297 39.5428 734.039 38.2205 734.042V734.042Z" fill="url(#paint7_linear_21_181)"/>
<path d="M35.1888 739.031C34.9622 738.528 34.7225 738.517 34.5079 738.509L33.9273 738.502C33.774 738.506 33.6231 738.542 33.4842 738.607C33.3452 738.672 33.2213 738.765 33.1201 738.88C32.8434 739.182 32.0613 739.913 32.0613 741.399C32.0613 742.885 33.1463 744.32 33.2966 744.523C33.4469 744.726 35.3903 747.872 38.4666 749.082C41.0233 750.088 41.5429 749.888 42.0984 749.838C42.654 749.788 43.8893 749.107 44.1409 748.402C44.3926 747.697 44.3937 747.093 44.3174 746.966C44.2412 746.84 44.0396 746.765 43.7368 746.613L41.6692 745.631C41.3915 745.53 41.1899 745.479 40.9884 745.782C40.7869 746.085 40.2073 746.765 40.0309 746.966C39.8544 747.168 39.6779 747.193 39.3751 747.043C39.0723 746.892 38.0973 746.573 36.9415 745.544C36.28 744.933 35.7125 744.229 35.2574 743.452C35.0809 743.15 35.2389 742.986 35.3903 742.836C35.5265 742.701 35.6931 742.483 35.8445 742.306C35.996 742.13 36.0461 742.003 36.1463 741.803C36.2465 741.602 36.1964 741.425 36.1212 741.273C36.0461 741.122 35.4578 739.629 35.1888 739.032" fill="white"/>
<rect y="824" width="247" height="78" rx="10" fill="#F5F8FE"/>
<rect width="132" height="9" rx="4.5" transform="matrix(1 0 0 -1 94 859)" fill="#D9DFEC"/>
<rect width="166" height="9" rx="4.5" transform="matrix(1 0 0 -1 60 878)" fill="#D9DFEC"/>
<path d="M26.0024 859.387L27.7203 853.126C26.6593 851.288 26.1016 849.205 26.1037 847.084C26.107 840.421 31.5395 835 38.2161 835C39.8074 834.996 41.3839 835.306 42.8544 835.915C44.325 836.523 45.6604 837.416 46.7837 838.544C49.0702 840.828 50.3284 843.864 50.3273 847.093C50.3241 853.755 44.8905 859.177 38.2161 859.177H38.2106C36.189 859.177 34.1994 858.671 32.423 857.706L26.0024 859.387Z" fill="white"/>
<path d="M38.2205 837.042C32.667 837.042 28.1517 841.547 28.1496 847.085C28.1463 848.976 28.6801 850.829 29.6888 852.431L29.9284 852.811L28.911 856.517L32.7215 855.52L33.0897 855.738C34.6344 856.653 36.4067 857.138 38.2129 857.138H38.2161C43.7641 857.138 48.2805 852.632 48.2827 847.094C48.287 845.774 48.0289 844.466 47.5234 843.246C47.0175 842.026 46.2743 840.919 45.3371 839.988C44.4047 839.051 43.2958 838.309 42.0746 837.803C40.8527 837.297 39.5428 837.039 38.2205 837.042V837.042Z" fill="url(#paint8_linear_21_181)"/>
<path d="M35.1888 842.031C34.9622 841.528 34.7225 841.517 34.5079 841.509L33.9273 841.502C33.774 841.506 33.6231 841.542 33.4842 841.607C33.3452 841.672 33.2213 841.765 33.1201 841.88C32.8434 842.182 32.0613 842.913 32.0613 844.399C32.0613 845.885 33.1463 847.32 33.2966 847.523C33.4469 847.726 35.3903 850.872 38.4666 852.082C41.0233 853.088 41.5429 852.888 42.0984 852.838C42.654 852.788 43.8893 852.107 44.1409 851.402C44.3926 850.697 44.3937 850.093 44.3174 849.966C44.2412 849.84 44.0396 849.765 43.7368 849.613L41.6692 848.631C41.3915 848.53 41.1899 848.479 40.9884 848.782C40.7869 849.085 40.2073 849.765 40.0309 849.966C39.8544 850.168 39.6779 850.193 39.3751 850.043C39.0723 849.892 38.0973 849.573 36.9415 848.544C36.28 847.933 35.7125 847.229 35.2574 846.452C35.0809 846.15 35.2389 845.986 35.3903 845.836C35.5265 845.701 35.6931 845.483 35.8445 845.306C35.996 845.13 36.0461 845.003 36.1463 844.803C36.2465 844.602 36.1964 844.425 36.1212 844.273C36.0461 844.122 35.4578 842.629 35.1888 842.032" fill="white"/>
<rect y="927" width="247" height="78" rx="10" fill="#F5F8FE"/>
<rect width="132" height="9" rx="4.5" transform="matrix(1 0 0 -1 94 962)" fill="#D9DFEC"/>
<rect width="166" height="9" rx="4.5" transform="matrix(1 0 0 -1 60 981)" fill="#D9DFEC"/>
<path d="M26.0024 962.387L27.7203 956.126C26.6593 954.288 26.1016 952.205 26.1037 950.084C26.107 943.421 31.5395 938 38.2161 938C39.8074 937.996 41.3839 938.306 42.8544 938.915C44.325 939.523 45.6604 940.416 46.7837 941.544C49.0702 943.828 50.3284 946.864 50.3273 950.093C50.3241 956.755 44.8905 962.177 38.2161 962.177H38.2106C36.189 962.177 34.1994 961.671 32.423 960.706L26.0024 962.387Z" fill="white"/>
<path d="M38.2205 940.042C32.667 940.042 28.1517 944.547 28.1496 950.085C28.1463 951.976 28.6801 953.829 29.6888 955.431L29.9284 955.811L28.911 959.517L32.7215 958.52L33.0897 958.738C34.6344 959.653 36.4067 960.138 38.2129 960.138H38.2161C43.7641 960.138 48.2805 955.632 48.2827 950.094C48.287 948.774 48.0289 947.466 47.5234 946.246C47.0175 945.026 46.2743 943.919 45.3371 942.988C44.4047 942.051 43.2958 941.309 42.0746 940.803C40.8527 940.297 39.5428 940.039 38.2205 940.042V940.042Z" fill="url(#paint9_linear_21_181)"/>
<path d="M35.1888 945.031C34.9622 944.528 34.7225 944.517 34.5079 944.509L33.9273 944.502C33.774 944.506 33.6231 944.542 33.4842 944.607C33.3452 944.672 33.2213 944.765 33.1201 944.88C32.8434 945.182 32.0613 945.913 32.0613 947.399C32.0613 948.885 33.1463 950.32 33.2966 950.523C33.4469 950.726 35.3903 953.872 38.4666 955.082C41.0233 956.088 41.5429 955.888 42.0984 955.838C42.654 955.788 43.8893 955.107 44.1409 954.402C44.3926 953.697 44.3937 953.093 44.3174 952.966C44.2412 952.84 44.0396 952.765 43.7368 952.613L41.6692 951.631C41.3915 951.53 41.1899 951.479 40.9884 951.782C40.7869 952.085 40.2073 952.765 40.0309 952.966C39.8544 953.168 39.6779 953.193 39.3751 953.043C39.0723 952.892 38.0973 952.573 36.9415 951.544C36.28 950.933 35.7125 950.229 35.2574 949.452C35.0809 949.15 35.2389 948.986 35.3903 948.836C35.5265 948.701 35.6931 948.483 35.8445 948.306C35.996 948.13 36.0461 948.003 36.1463 947.803C36.2465 947.602 36.1964 947.425 36.1212 947.273C36.0461 947.122 35.4578 945.629 35.1888 945.032" fill="white"/>
<rect y="1030" width="247" height="78" rx="10" fill="#F5F8FE"/>
<rect width="132" height="9" rx="4.5" transform="matrix(1 0 0 -1 94 1065)" fill="#D9DFEC"/>
<rect width="166" height="9" rx="4.5" transform="matrix(1 0 0 -1 60 1084)" fill="#D9DFEC"/>
<path d="M26.0024 1065.39L27.7203 1059.13C26.6593 1057.29 26.1016 1055.21 26.1037 1053.08C26.107 1046.42 31.5395 1041 38.2161 1041C39.8074 1041 41.3839 1041.31 42.8544 1041.91C44.325 1042.52 45.6604 1043.42 46.7837 1044.54C49.0702 1046.83 50.3284 1049.86 50.3273 1053.09C50.3241 1059.76 44.8905 1065.18 38.2161 1065.18H38.2106C36.189 1065.18 34.1994 1064.67 32.423 1063.71L26.0024 1065.39Z" fill="white"/>
<path d="M38.2205 1043.04C32.667 1043.04 28.1517 1047.55 28.1496 1053.09C28.1463 1054.98 28.6801 1056.83 29.6888 1058.43L29.9284 1058.81L28.911 1062.52L32.7215 1061.52L33.0897 1061.74C34.6344 1062.65 36.4067 1063.14 38.2129 1063.14H38.2161C43.7641 1063.14 48.2805 1058.63 48.2827 1053.09C48.287 1051.77 48.0289 1050.47 47.5234 1049.25C47.0175 1048.03 46.2743 1046.92 45.3371 1045.99C44.4047 1045.05 43.2958 1044.31 42.0746 1043.8C40.8527 1043.3 39.5428 1043.04 38.2205 1043.04V1043.04Z" fill="url(#paint10_linear_21_181)"/>
<path d="M35.1888 1048.03C34.9622 1047.53 34.7225 1047.52 34.5079 1047.51L33.9273 1047.5C33.774 1047.51 33.6231 1047.54 33.4842 1047.61C33.3452 1047.67 33.2213 1047.76 33.1201 1047.88C32.8434 1048.18 32.0613 1048.91 32.0613 1050.4C32.0613 1051.88 33.1463 1053.32 33.2966 1053.52C33.4469 1053.73 35.3903 1056.87 38.4666 1058.08C41.0233 1059.09 41.5429 1058.89 42.0984 1058.84C42.654 1058.79 43.8893 1058.11 44.1409 1057.4C44.3926 1056.7 44.3937 1056.09 44.3174 1055.97C44.2412 1055.84 44.0396 1055.76 43.7368 1055.61L41.6692 1054.63C41.3915 1054.53 41.1899 1054.48 40.9884 1054.78C40.7869 1055.09 40.2073 1055.76 40.0309 1055.97C39.8544 1056.17 39.6779 1056.19 39.3751 1056.04C39.0723 1055.89 38.0973 1055.57 36.9415 1054.54C36.28 1053.93 35.7125 1053.23 35.2574 1052.45C35.0809 1052.15 35.2389 1051.99 35.3903 1051.84C35.5265 1051.7 35.6931 1051.48 35.8445 1051.31C35.996 1051.13 36.0461 1051 36.1463 1050.8C36.2465 1050.6 36.1964 1050.42 36.1212 1050.27C36.0461 1050.12 35.4578 1048.63 35.1888 1048.03" fill="white"/>
<rect y="1133" width="247" height="78" rx="10" fill="#F5F8FE"/>
<rect width="132" height="9" rx="4.5" transform="matrix(1 0 0 -1 94 1168)" fill="#D9DFEC"/>
<rect width="166" height="9" rx="4.5" transform="matrix(1 0 0 -1 60 1187)" fill="#D9DFEC"/>
<path d="M26.0024 1168.39L27.7203 1162.13C26.6593 1160.29 26.1016 1158.21 26.1037 1156.08C26.107 1149.42 31.5395 1144 38.2161 1144C39.8074 1144 41.3839 1144.31 42.8544 1144.91C44.325 1145.52 45.6604 1146.42 46.7837 1147.54C49.0702 1149.83 50.3284 1152.86 50.3273 1156.09C50.3241 1162.76 44.8905 1168.18 38.2161 1168.18H38.2106C36.189 1168.18 34.1994 1167.67 32.423 1166.71L26.0024 1168.39Z" fill="white"/>
<path d="M38.2205 1146.04C32.667 1146.04 28.1517 1150.55 28.1496 1156.09C28.1463 1157.98 28.6801 1159.83 29.6888 1161.43L29.9284 1161.81L28.911 1165.52L32.7215 1164.52L33.0897 1164.74C34.6344 1165.65 36.4067 1166.14 38.2129 1166.14H38.2161C43.7641 1166.14 48.2805 1161.63 48.2827 1156.09C48.287 1154.77 48.0289 1153.47 47.5234 1152.25C47.0175 1151.03 46.2743 1149.92 45.3371 1148.99C44.4047 1148.05 43.2958 1147.31 42.0746 1146.8C40.8527 1146.3 39.5428 1146.04 38.2205 1146.04V1146.04Z" fill="url(#paint11_linear_21_181)"/>
<path d="M35.1888 1151.03C34.9622 1150.53 34.7225 1150.52 34.5079 1150.51L33.9273 1150.5C33.774 1150.51 33.6231 1150.54 33.4842 1150.61C33.3452 1150.67 33.2213 1150.76 33.1201 1150.88C32.8434 1151.18 32.0613 1151.91 32.0613 1153.4C32.0613 1154.88 33.1463 1156.32 33.2966 1156.52C33.4469 1156.73 35.3903 1159.87 38.4666 1161.08C41.0233 1162.09 41.5429 1161.89 42.0984 1161.84C42.654 1161.79 43.8893 1161.11 44.1409 1160.4C44.3926 1159.7 44.3937 1159.09 44.3174 1158.97C44.2412 1158.84 44.0396 1158.76 43.7368 1158.61L41.6692 1157.63C41.3915 1157.53 41.1899 1157.48 40.9884 1157.78C40.7869 1158.09 40.2073 1158.76 40.0309 1158.97C39.8544 1159.17 39.6779 1159.19 39.3751 1159.04C39.0723 1158.89 38.0973 1158.57 36.9415 1157.54C36.28 1156.93 35.7125 1156.23 35.2574 1155.45C35.0809 1155.15 35.2389 1154.99 35.3903 1154.84C35.5265 1154.7 35.6931 1154.48 35.8445 1154.31C35.996 1154.13 36.0461 1154 36.1463 1153.8C36.2465 1153.6 36.1964 1153.42 36.1212 1153.27C36.0461 1153.12 35.4578 1151.63 35.1888 1151.03" fill="white"/>
<rect y="1236" width="247" height="78" rx="10" fill="#F5F8FE"/>
<rect width="132" height="9" rx="4.5" transform="matrix(1 0 0 -1 94 1271)" fill="#D9DFEC"/>
<rect width="166" height="9" rx="4.5" transform="matrix(1 0 0 -1 60 1290)" fill="#D9DFEC"/>
<path d="M26.0024 1271.39L27.7203 1265.13C26.6593 1263.29 26.1016 1261.21 26.1037 1259.08C26.107 1252.42 31.5395 1247 38.2161 1247C39.8074 1247 41.3839 1247.31 42.8544 1247.91C44.325 1248.52 45.6604 1249.42 46.7837 1250.54C49.0702 1252.83 50.3284 1255.86 50.3273 1259.09C50.3241 1265.76 44.8905 1271.18 38.2161 1271.18H38.2106C36.189 1271.18 34.1994 1270.67 32.423 1269.71L26.0024 1271.39Z" fill="white"/>
<path d="M38.2205 1249.04C32.667 1249.04 28.1517 1253.55 28.1496 1259.09C28.1463 1260.98 28.6801 1262.83 29.6888 1264.43L29.9284 1264.81L28.911 1268.52L32.7215 1267.52L33.0897 1267.74C34.6344 1268.65 36.4067 1269.14 38.2129 1269.14H38.2161C43.7641 1269.14 48.2805 1264.63 48.2827 1259.09C48.287 1257.77 48.0289 1256.47 47.5234 1255.25C47.0175 1254.03 46.2743 1252.92 45.3371 1251.99C44.4047 1251.05 43.2958 1250.31 42.0746 1249.8C40.8527 1249.3 39.5428 1249.04 38.2205 1249.04V1249.04Z" fill="url(#paint12_linear_21_181)"/>
<path d="M35.1888 1254.03C34.9622 1253.53 34.7225 1253.52 34.5079 1253.51L33.9273 1253.5C33.774 1253.51 33.6231 1253.54 33.4842 1253.61C33.3452 1253.67 33.2213 1253.76 33.1201 1253.88C32.8434 1254.18 32.0613 1254.91 32.0613 1256.4C32.0613 1257.88 33.1463 1259.32 33.2966 1259.52C33.4469 1259.73 35.3903 1262.87 38.4666 1264.08C41.0233 1265.09 41.5429 1264.89 42.0984 1264.84C42.654 1264.79 43.8893 1264.11 44.1409 1263.4C44.3926 1262.7 44.3937 1262.09 44.3174 1261.97C44.2412 1261.84 44.0396 1261.76 43.7368 1261.61L41.6692 1260.63C41.3915 1260.53 41.1899 1260.48 40.9884 1260.78C40.7869 1261.09 40.2073 1261.76 40.0309 1261.97C39.8544 1262.17 39.6779 1262.19 39.3751 1262.04C39.0723 1261.89 38.0973 1261.57 36.9415 1260.54C36.28 1259.93 35.7125 1259.23 35.2574 1258.45C35.0809 1258.15 35.2389 1257.99 35.3903 1257.84C35.5265 1257.7 35.6931 1257.48 35.8445 1257.31C35.996 1257.13 36.0461 1257 36.1463 1256.8C36.2465 1256.6 36.1964 1256.42 36.1212 1256.27C36.0461 1256.12 35.4578 1254.63 35.1888 1254.03" fill="white"/>
<rect y="1339" width="247" height="78" rx="10" fill="#F5F8FE"/>
<rect width="132" height="9" rx="4.5" transform="matrix(1 0 0 -1 94 1374)" fill="#D9DFEC"/>
<rect width="166" height="9" rx="4.5" transform="matrix(1 0 0 -1 60 1393)" fill="#D9DFEC"/>
<path d="M26.0024 1374.39L27.7203 1368.13C26.6593 1366.29 26.1016 1364.21 26.1037 1362.08C26.107 1355.42 31.5395 1350 38.2161 1350C39.8074 1350 41.3839 1350.31 42.8544 1350.91C44.325 1351.52 45.6604 1352.42 46.7837 1353.54C49.0702 1355.83 50.3284 1358.86 50.3273 1362.09C50.3241 1368.76 44.8905 1374.18 38.2161 1374.18H38.2106C36.189 1374.18 34.1994 1373.67 32.423 1372.71L26.0024 1374.39Z" fill="white"/>
<path d="M38.2205 1352.04C32.667 1352.04 28.1517 1356.55 28.1496 1362.09C28.1463 1363.98 28.6801 1365.83 29.6888 1367.43L29.9284 1367.81L28.911 1371.52L32.7215 1370.52L33.0897 1370.74C34.6344 1371.65 36.4067 1372.14 38.2129 1372.14H38.2161C43.7641 1372.14 48.2805 1367.63 48.2827 1362.09C48.287 1360.77 48.0289 1359.47 47.5234 1358.25C47.0175 1357.03 46.2743 1355.92 45.3371 1354.99C44.4047 1354.05 43.2958 1353.31 42.0746 1352.8C40.8527 1352.3 39.5428 1352.04 38.2205 1352.04V1352.04Z" fill="url(#paint13_linear_21_181)"/>
<path d="M35.1888 1357.03C34.9622 1356.53 34.7225 1356.52 34.5079 1356.51L33.9273 1356.5C33.774 1356.51 33.6231 1356.54 33.4842 1356.61C33.3452 1356.67 33.2213 1356.76 33.1201 1356.88C32.8434 1357.18 32.0613 1357.91 32.0613 1359.4C32.0613 1360.88 33.1463 1362.32 33.2966 1362.52C33.4469 1362.73 35.3903 1365.87 38.4666 1367.08C41.0233 1368.09 41.5429 1367.89 42.0984 1367.84C42.654 1367.79 43.8893 1367.11 44.1409 1366.4C44.3926 1365.7 44.3937 1365.09 44.3174 1364.97C44.2412 1364.84 44.0396 1364.76 43.7368 1364.61L41.6692 1363.63C41.3915 1363.53 41.1899 1363.48 40.9884 1363.78C40.7869 1364.09 40.2073 1364.76 40.0309 1364.97C39.8544 1365.17 39.6779 1365.19 39.3751 1365.04C39.0723 1364.89 38.0973 1364.57 36.9415 1363.54C36.28 1362.93 35.7125 1362.23 35.2574 1361.45C35.0809 1361.15 35.2389 1360.99 35.3903 1360.84C35.5265 1360.7 35.6931 1360.48 35.8445 1360.31C35.996 1360.13 36.0461 1360 36.1463 1359.8C36.2465 1359.6 36.1964 1359.42 36.1212 1359.27C36.0461 1359.12 35.4578 1357.63 35.1888 1357.03" fill="white"/>
<rect y="1442" width="247" height="78" rx="10" fill="#F5F8FE"/>
<rect width="132" height="9" rx="4.5" transform="matrix(1 0 0 -1 94 1477)" fill="#D9DFEC"/>
<rect width="166" height="9" rx="4.5" transform="matrix(1 0 0 -1 60 1496)" fill="#D9DFEC"/>
<path d="M26.0024 1477.39L27.7203 1471.13C26.6593 1469.29 26.1016 1467.21 26.1037 1465.08C26.107 1458.42 31.5395 1453 38.2161 1453C39.8074 1453 41.3839 1453.31 42.8544 1453.91C44.325 1454.52 45.6604 1455.42 46.7837 1456.54C49.0702 1458.83 50.3284 1461.86 50.3273 1465.09C50.3241 1471.76 44.8905 1477.18 38.2161 1477.18H38.2106C36.189 1477.18 34.1994 1476.67 32.423 1475.71L26.0024 1477.39Z" fill="white"/>
<path d="M38.2205 1455.04C32.667 1455.04 28.1517 1459.55 28.1496 1465.09C28.1463 1466.98 28.6801 1468.83 29.6888 1470.43L29.9284 1470.81L28.911 1474.52L32.7215 1473.52L33.0897 1473.74C34.6344 1474.65 36.4067 1475.14 38.2129 1475.14H38.2161C43.7641 1475.14 48.2805 1470.63 48.2827 1465.09C48.287 1463.77 48.0289 1462.47 47.5234 1461.25C47.0175 1460.03 46.2743 1458.92 45.3371 1457.99C44.4047 1457.05 43.2958 1456.31 42.0746 1455.8C40.8527 1455.3 39.5428 1455.04 38.2205 1455.04V1455.04Z" fill="url(#paint14_linear_21_181)"/>
<path d="M35.1888 1460.03C34.9622 1459.53 34.7225 1459.52 34.5079 1459.51L33.9273 1459.5C33.774 1459.51 33.6231 1459.54 33.4842 1459.61C33.3452 1459.67 33.2213 1459.76 33.1201 1459.88C32.8434 1460.18 32.0613 1460.91 32.0613 1462.4C32.0613 1463.88 33.1463 1465.32 33.2966 1465.52C33.4469 1465.73 35.3903 1468.87 38.4666 1470.08C41.0233 1471.09 41.5429 1470.89 42.0984 1470.84C42.654 1470.79 43.8893 1470.11 44.1409 1469.4C44.3926 1468.7 44.3937 1468.09 44.3174 1467.97C44.2412 1467.84 44.0396 1467.76 43.7368 1467.61L41.6692 1466.63C41.3915 1466.53 41.1899 1466.48 40.9884 1466.78C40.7869 1467.09 40.2073 1467.76 40.0309 1467.97C39.8544 1468.17 39.6779 1468.19 39.3751 1468.04C39.0723 1467.89 38.0973 1467.57 36.9415 1466.54C36.28 1465.93 35.7125 1465.23 35.2574 1464.45C35.0809 1464.15 35.2389 1463.99 35.3903 1463.84C35.5265 1463.7 35.6931 1463.48 35.8445 1463.31C35.996 1463.13 36.0461 1463 36.1463 1462.8C36.2465 1462.6 36.1964 1462.42 36.1212 1462.27C36.0461 1462.12 35.4578 1460.63 35.1888 1460.03" fill="white"/>
<rect y="1545" width="247" height="78" rx="10" fill="#F5F8FE"/>
<rect width="132" height="9" rx="4.5" transform="matrix(1 0 0 -1 94 1580)" fill="#D9DFEC"/>
<rect width="166" height="9" rx="4.5" transform="matrix(1 0 0 -1 60 1599)" fill="#D9DFEC"/>
<path d="M26.0024 1580.39L27.7203 1574.13C26.6593 1572.29 26.1016 1570.21 26.1037 1568.08C26.107 1561.42 31.5395 1556 38.2161 1556C39.8074 1556 41.3839 1556.31 42.8544 1556.91C44.325 1557.52 45.6604 1558.42 46.7837 1559.54C49.0702 1561.83 50.3284 1564.86 50.3273 1568.09C50.3241 1574.76 44.8905 1580.18 38.2161 1580.18H38.2106C36.189 1580.18 34.1994 1579.67 32.423 1578.71L26.0024 1580.39Z" fill="white"/>
<path d="M38.2205 1558.04C32.667 1558.04 28.1517 1562.55 28.1496 1568.09C28.1463 1569.98 28.6801 1571.83 29.6888 1573.43L29.9284 1573.81L28.911 1577.52L32.7215 1576.52L33.0897 1576.74C34.6344 1577.65 36.4067 1578.14 38.2129 1578.14H38.2161C43.7641 1578.14 48.2805 1573.63 48.2827 1568.09C48.287 1566.77 48.0289 1565.47 47.5234 1564.25C47.0175 1563.03 46.2743 1561.92 45.3371 1560.99C44.4047 1560.05 43.2958 1559.31 42.0746 1558.8C40.8527 1558.3 39.5428 1558.04 38.2205 1558.04V1558.04Z" fill="url(#paint15_linear_21_181)"/>
<path d="M35.1888 1563.03C34.9622 1562.53 34.7225 1562.52 34.5079 1562.51L33.9273 1562.5C33.774 1562.51 33.6231 1562.54 33.4842 1562.61C33.3452 1562.67 33.2213 1562.76 33.1201 1562.88C32.8434 1563.18 32.0613 1563.91 32.0613 1565.4C32.0613 1566.88 33.1463 1568.32 33.2966 1568.52C33.4469 1568.73 35.3903 1571.87 38.4666 1573.08C41.0233 1574.09 41.5429 1573.89 42.0984 1573.84C42.654 1573.79 43.8893 1573.11 44.1409 1572.4C44.3926 1571.7 44.3937 1571.09 44.3174 1570.97C44.2412 1570.84 44.0396 1570.76 43.7368 1570.61L41.6692 1569.63C41.3915 1569.53 41.1899 1569.48 40.9884 1569.78C40.7869 1570.09 40.2073 1570.76 40.0309 1570.97C39.8544 1571.17 39.6779 1571.19 39.3751 1571.04C39.0723 1570.89 38.0973 1570.57 36.9415 1569.54C36.28 1568.93 35.7125 1568.23 35.2574 1567.45C35.0809 1567.15 35.2389 1566.99 35.3903 1566.84C35.5265 1566.7 35.6931 1566.48 35.8445 1566.31C35.996 1566.13 36.0461 1566 36.1463 1565.8C36.2465 1565.6 36.1964 1565.42 36.1212 1565.27C36.0461 1565.12 35.4578 1563.63 35.1888 1563.03" fill="white"/>
<defs>
<linearGradient id="paint0_linear_21_181" x1="210.415" y1="35.2878" x2="212.281" y2="352.083" gradientUnits="userSpaceOnUse">
<stop stop-color="#57D163"/>
<stop offset="1" stop-color="#23B33A"/>
</linearGradient>
<linearGradient id="paint1_linear_21_181" x1="210.415" y1="138.288" x2="212.281" y2="455.083" gradientUnits="userSpaceOnUse">
<stop stop-color="#57D163"/>
<stop offset="1" stop-color="#23B33A"/>
</linearGradient>
<linearGradient id="paint2_linear_21_181" x1="210.415" y1="241.288" x2="212.281" y2="558.083" gradientUnits="userSpaceOnUse">
<stop stop-color="#57D163"/>
<stop offset="1" stop-color="#23B33A"/>
</linearGradient>
<linearGradient id="paint3_linear_21_181" x1="210.415" y1="344.288" x2="212.281" y2="661.083" gradientUnits="userSpaceOnUse">
<stop stop-color="#57D163"/>
<stop offset="1" stop-color="#23B33A"/>
</linearGradient>
<linearGradient id="paint4_linear_21_181" x1="210.415" y1="447.288" x2="212.281" y2="764.083" gradientUnits="userSpaceOnUse">
<stop stop-color="#57D163"/>
<stop offset="1" stop-color="#23B33A"/>
</linearGradient>
<linearGradient id="paint5_linear_21_181" x1="210.415" y1="550.288" x2="212.281" y2="867.083" gradientUnits="userSpaceOnUse">
<stop stop-color="#57D163"/>
<stop offset="1" stop-color="#23B33A"/>
</linearGradient>
<linearGradient id="paint6_linear_21_181" x1="210.415" y1="653.288" x2="212.281" y2="970.083" gradientUnits="userSpaceOnUse">
<stop stop-color="#57D163"/>
<stop offset="1" stop-color="#23B33A"/>
</linearGradient>
<linearGradient id="paint7_linear_21_181" x1="210.415" y1="756.288" x2="212.281" y2="1073.08" gradientUnits="userSpaceOnUse">
<stop stop-color="#57D163"/>
<stop offset="1" stop-color="#23B33A"/>
</linearGradient>
<linearGradient id="paint8_linear_21_181" x1="210.415" y1="859.288" x2="212.281" y2="1176.08" gradientUnits="userSpaceOnUse">
<stop stop-color="#57D163"/>
<stop offset="1" stop-color="#23B33A"/>
</linearGradient>
<linearGradient id="paint9_linear_21_181" x1="210.415" y1="962.288" x2="212.281" y2="1279.08" gradientUnits="userSpaceOnUse">
<stop stop-color="#57D163"/>
<stop offset="1" stop-color="#23B33A"/>
</linearGradient>
<linearGradient id="paint10_linear_21_181" x1="210.415" y1="1065.29" x2="212.281" y2="1382.08" gradientUnits="userSpaceOnUse">
<stop stop-color="#57D163"/>
<stop offset="1" stop-color="#23B33A"/>
</linearGradient>
<linearGradient id="paint11_linear_21_181" x1="210.415" y1="1168.29" x2="212.281" y2="1485.08" gradientUnits="userSpaceOnUse">
<stop stop-color="#57D163"/>
<stop offset="1" stop-color="#23B33A"/>
</linearGradient>
<linearGradient id="paint12_linear_21_181" x1="210.415" y1="1271.29" x2="212.281" y2="1588.08" gradientUnits="userSpaceOnUse">
<stop stop-color="#57D163"/>
<stop offset="1" stop-color="#23B33A"/>
</linearGradient>
<linearGradient id="paint13_linear_21_181" x1="210.415" y1="1374.29" x2="212.281" y2="1691.08" gradientUnits="userSpaceOnUse">
<stop stop-color="#57D163"/>
<stop offset="1" stop-color="#23B33A"/>
</linearGradient>
<linearGradient id="paint14_linear_21_181" x1="210.415" y1="1477.29" x2="212.281" y2="1794.08" gradientUnits="userSpaceOnUse">
<stop stop-color="#57D163"/>
<stop offset="1" stop-color="#23B33A"/>
</linearGradient>
<linearGradient id="paint15_linear_21_181" x1="210.415" y1="1580.29" x2="212.281" y2="1897.08" gradientUnits="userSpaceOnUse">
<stop stop-color="#57D163"/>
<stop offset="1" stop-color="#23B33A"/>
</linearGradient>
</defs>
</svg>
