<svg width="120" height="120" viewBox="0 0 120 120" fill="none" xmlns="http://www.w3.org/2000/svg">
<g filter="url(#filter0_d_30_44)">
<path d="M105.188 87.6562C105.188 88.4132 105.068 89.166 104.835 89.8879C104.602 90.6097 104.255 91.2883 103.81 91.9009C103.364 92.5134 102.826 93.0517 102.213 93.4972C101.601 93.9427 100.922 94.2892 100.2 94.5223C99.4785 94.7554 98.7257 94.875 97.9688 94.875C97.2118 94.875 96.459 94.7554 95.7371 94.5223C95.0152 94.2892 94.3367 93.9427 93.7241 93.4972C92.4912 92.6011 91.5735 91.3376 91.1027 89.8879C90.8696 89.166 90.75 88.4132 90.75 87.6562C90.75 86.8993 90.8696 86.1465 91.1027 85.4246C91.5741 83.9746 92.4925 82.7111 93.7262 81.8152C94.3392 81.37 95.0186 81.0241 95.7392 80.7902C96.459 80.5571 97.2118 80.4375 97.9688 80.4375C98.7257 80.4375 99.4785 80.5571 100.2 80.7902C101.65 81.2616 102.914 82.18 103.81 83.4137C104.255 84.0262 104.602 84.7069 104.835 85.4267C105.068 86.1465 105.188 86.8993 105.188 87.6562Z" fill="#1864FF"/>
<mask id="mask0_30_44" style="mask-type:luminance" maskUnits="userSpaceOnUse" x="86" y="76" width="24" height="23">
<path d="M86.625 76.3125H109.312V99H86.625V76.3125ZM105.188 87.6562C105.188 88.4132 105.068 89.166 104.835 89.8879C104.602 90.6097 104.255 91.2883 103.81 91.9009C103.364 92.5134 102.826 93.0517 102.213 93.4972C101.601 93.9427 100.922 94.2893 100.2 94.5223C99.4785 94.7554 98.7257 94.875 97.9688 94.875C97.2118 94.875 96.459 94.7554 95.7371 94.5223C95.0153 94.2893 94.3367 93.9427 93.7241 93.4972C92.4912 92.6011 91.5735 91.3376 91.1027 89.8879C90.8696 89.166 90.75 88.4132 90.75 87.6562C90.75 86.8993 90.8696 86.1465 91.1027 85.4246C91.5741 83.9746 92.4925 82.7111 93.7262 81.8152C94.3392 81.37 95.0186 81.0241 95.7392 80.7902C96.459 80.5571 97.2118 80.4375 97.9688 80.4375C98.7257 80.4375 99.4785 80.5571 100.2 80.7902C101.65 81.2616 102.914 82.18 103.81 83.4137C104.255 84.0262 104.602 84.7069 104.835 85.4267C105.068 86.1465 105.188 86.8993 105.188 87.6562Z" fill="white"/>
</mask>
<g mask="url(#mask0_30_44)">
<path d="M105.188 87.6562C105.188 88.4132 105.068 89.166 104.835 89.8879C104.602 90.6097 104.255 91.2883 103.81 91.9009C103.364 92.5134 102.826 93.0517 102.213 93.4972C101.601 93.9427 100.922 94.2892 100.2 94.5223C99.4785 94.7554 98.7257 94.875 97.9688 94.875C97.2118 94.875 96.459 94.7554 95.7371 94.5223C95.0152 94.2892 94.3367 93.9427 93.7241 93.4972C92.4912 92.6011 91.5735 91.3376 91.1027 89.8879C90.8696 89.166 90.75 88.4132 90.75 87.6562C90.75 86.8993 90.8696 86.1465 91.1027 85.4246C91.5741 83.9746 92.4925 82.7111 93.7262 81.8152C94.3392 81.37 95.0186 81.0241 95.7392 80.7902C96.459 80.5571 97.2118 80.4375 97.9688 80.4375C98.7257 80.4375 99.4785 80.5571 100.2 80.7902C101.65 81.2616 102.914 82.18 103.81 83.4137C104.255 84.0262 104.602 84.7069 104.835 85.4267C105.068 86.1465 105.188 86.8993 105.188 87.6562Z" stroke="white" stroke-width="4"/>
</g>
<path d="M105.188 87.6562C105.188 88.4132 105.068 89.166 104.835 89.8879C104.602 90.6097 104.255 91.2883 103.81 91.9009C103.364 92.5134 102.826 93.0517 102.213 93.4972C101.601 93.9427 100.922 94.2892 100.2 94.5223C99.4785 94.7554 98.7257 94.875 97.9688 94.875C97.2118 94.875 96.459 94.7554 95.7371 94.5223C95.0152 94.2892 94.3367 93.9427 93.7241 93.4972C92.4912 92.6011 91.5735 91.3376 91.1027 89.8879C90.8696 89.166 90.75 88.4132 90.75 87.6562C90.75 86.8993 90.8696 86.1465 91.1027 85.4246C91.5741 83.9746 92.4925 82.7111 93.7262 81.8152C94.3392 81.37 95.0186 81.0241 95.7392 80.7902C96.459 80.5571 97.2118 80.4375 97.9688 80.4375C98.7257 80.4375 99.4785 80.5571 100.2 80.7902C101.65 81.2616 102.914 82.18 103.81 83.4137C104.255 84.0262 104.602 84.7069 104.835 85.4267C105.068 86.1465 105.188 86.8993 105.188 87.6562Z" fill="#1864FF"/>
<mask id="mask1_30_44" style="mask-type:luminance" maskUnits="userSpaceOnUse" x="86" y="76" width="24" height="23">
<path d="M86.625 76.3125H109.312V99H86.625V76.3125ZM105.188 87.6562C105.188 88.4132 105.068 89.166 104.835 89.8879C104.602 90.6097 104.255 91.2883 103.81 91.9009C103.364 92.5134 102.826 93.0517 102.213 93.4972C101.601 93.9427 100.922 94.2893 100.2 94.5223C99.4785 94.7554 98.7257 94.875 97.9688 94.875C97.2118 94.875 96.459 94.7554 95.7371 94.5223C95.0153 94.2893 94.3367 93.9427 93.7241 93.4972C92.4912 92.6011 91.5735 91.3376 91.1027 89.8879C90.8696 89.166 90.75 88.4132 90.75 87.6562C90.75 86.8993 90.8696 86.1465 91.1027 85.4246C91.5741 83.9746 92.4925 82.7111 93.7262 81.8152C94.3392 81.37 95.0186 81.0241 95.7392 80.7902C96.459 80.5571 97.2118 80.4375 97.9688 80.4375C98.7257 80.4375 99.4785 80.5571 100.2 80.7902C101.65 81.2616 102.914 82.18 103.81 83.4137C104.255 84.0262 104.602 84.7069 104.835 85.4267C105.068 86.1465 105.188 86.8993 105.188 87.6562Z" fill="white"/>
</mask>
<g mask="url(#mask1_30_44)">
<path d="M105.188 87.6562C105.188 88.4132 105.068 89.166 104.835 89.8879C104.602 90.6097 104.255 91.2883 103.81 91.9009C103.364 92.5134 102.826 93.0517 102.213 93.4972C101.601 93.9427 100.922 94.2892 100.2 94.5223C99.4785 94.7554 98.7257 94.875 97.9688 94.875C97.2118 94.875 96.459 94.7554 95.7371 94.5223C95.0152 94.2892 94.3367 93.9427 93.7241 93.4972C92.4912 92.6011 91.5735 91.3376 91.1027 89.8879C90.8696 89.166 90.75 88.4132 90.75 87.6562C90.75 86.8993 90.8696 86.1465 91.1027 85.4246C91.5741 83.9746 92.4925 82.7111 93.7262 81.8152C94.3392 81.37 95.0186 81.0241 95.7392 80.7902C96.459 80.5571 97.2118 80.4375 97.9688 80.4375C98.7257 80.4375 99.4785 80.5571 100.2 80.7902C101.65 81.2616 102.914 82.18 103.81 83.4137C104.255 84.0262 104.602 84.7069 104.835 85.4267C105.068 86.1465 105.188 86.8993 105.188 87.6562Z" stroke="white" stroke-width="4"/>
</g>
</g>
<path d="M0 59.8125C0 66.0866 0.985873 72.3257 2.92462 78.2946C4.86337 84.2634 7.73438 89.892 11.4242 94.9699C15.1133 100.047 19.5782 104.512 24.6551 108.201C29.733 111.891 35.3616 114.762 41.3304 116.7C47.2993 118.639 53.5384 119.625 59.8125 119.625C66.0866 119.625 72.3257 118.639 78.2946 116.7C84.2634 114.762 89.892 111.891 94.9699 108.201C100.047 104.512 104.512 100.047 108.201 94.9699C111.891 89.892 114.762 84.2634 116.7 78.2946C118.639 72.3257 119.625 66.0866 119.625 59.8125C119.625 53.5384 118.637 47.2993 116.7 41.3304C114.764 35.3616 111.891 29.733 108.201 24.6551C104.512 19.5782 100.047 15.1133 94.9699 11.4242C89.892 7.73438 84.2634 4.86337 78.2946 2.92462C72.3257 0.985875 66.0866 0 59.8125 0C53.5384 0 47.2993 0.987937 41.3304 2.92462C35.3616 4.86131 29.733 7.73438 24.6551 11.4242C19.5782 15.1133 15.1133 19.5782 11.4242 24.6551C7.73438 29.733 4.86337 35.3616 2.92462 41.3304C0.985873 47.2993 0 53.5384 0 59.8125Z" fill="white"/>
<mask id="mask2_30_44" style="mask-type:luminance" maskUnits="userSpaceOnUse" x="0" y="0" width="120" height="120">
<path d="M0 59.8125C0 66.0866 0.985873 72.3257 2.92462 78.2946C4.86337 84.2634 7.73438 89.892 11.4242 94.9699C15.1133 100.047 19.5782 104.512 24.6551 108.201C29.733 111.891 35.3616 114.762 41.3304 116.7C47.2993 118.639 53.5384 119.625 59.8125 119.625C66.0866 119.625 72.3257 118.639 78.2946 116.7C84.2634 114.762 89.892 111.891 94.9699 108.201C100.047 104.512 104.512 100.047 108.201 94.9699C111.891 89.892 114.762 84.2634 116.7 78.2946C118.639 72.3257 119.625 66.0866 119.625 59.8125C119.625 53.5384 118.637 47.2993 116.7 41.3304C114.764 35.3616 111.891 29.733 108.201 24.6551C104.512 19.5782 100.047 15.1133 94.9699 11.4242C89.892 7.73438 84.2634 4.86337 78.2946 2.92462C72.3257 0.985875 66.0866 0 59.8125 0C53.5384 0 47.2993 0.987937 41.3304 2.92462C35.3616 4.86131 29.733 7.73438 24.6551 11.4242C19.5782 15.1133 15.1133 19.5782 11.4242 24.6551C7.73438 29.733 4.86337 35.3616 2.92462 41.3304C0.985873 47.2993 0 53.5384 0 59.8125Z" fill="white"/>
</mask>
<g mask="url(#mask2_30_44)">
<path d="M0 59.8125C0 66.0866 0.985873 72.3257 2.92462 78.2946C4.86337 84.2634 7.73438 89.892 11.4242 94.9699C15.1133 100.047 19.5782 104.512 24.6551 108.201C29.733 111.891 35.3616 114.762 41.3304 116.7C47.2993 118.639 53.5384 119.625 59.8125 119.625C66.0866 119.625 72.3257 118.639 78.2946 116.7C84.2634 114.762 89.892 111.891 94.9699 108.201C100.047 104.512 104.512 100.047 108.201 94.9699C111.891 89.892 114.762 84.2634 116.7 78.2946C118.639 72.3257 119.625 66.0866 119.625 59.8125C119.625 53.5384 118.637 47.2993 116.7 41.3304C114.764 35.3616 111.891 29.733 108.201 24.6551C104.512 19.5782 100.047 15.1133 94.9699 11.4242C89.892 7.73438 84.2634 4.86337 78.2946 2.92462C72.3257 0.985875 66.0866 0 59.8125 0C53.5384 0 47.2993 0.987937 41.3304 2.92462C35.3616 4.86131 29.733 7.73438 24.6551 11.4242C19.5782 15.1133 15.1133 19.5782 11.4242 24.6551C7.73438 29.733 4.86337 35.3616 2.92462 41.3304C0.985873 47.2993 0 53.5384 0 59.8125Z" stroke="#B7CFFF" stroke-width="2"/>
</g>
<g filter="url(#filter1_f_30_44)">
<path d="M47.9943 78.4286L48.8627 78.9422C52.5244 81.1059 56.6998 82.2469 60.953 82.2463H60.9613C74.054 82.2463 84.711 71.6141 84.7151 58.5441C84.7243 55.4281 84.1147 52.3414 82.9215 49.4629C81.7284 46.5844 79.9754 43.9716 77.7645 41.7759C75.5639 39.5659 72.947 37.8141 70.0652 36.6218C67.1816 35.4284 64.0903 34.8178 60.9695 34.8253C47.8665 34.8253 37.2095 45.4575 37.2054 58.5255C37.1992 62.9888 38.4573 67.3613 40.8375 71.1398L41.4026 72.0369L39.0018 80.7819L47.9943 78.4286ZM32.142 87.5573L36.1968 72.7795C33.6919 68.4463 32.3756 63.5285 32.3812 58.5234C32.3895 42.7989 45.21 30.0073 60.9633 30.0073C68.609 30.0114 75.7845 32.9814 81.18 38.3708C83.8401 41.0126 85.9493 44.1564 87.3849 47.6197C88.8206 51.0831 89.5543 54.797 89.5434 58.5461C89.5372 74.2686 76.7147 87.0623 60.9613 87.0623H60.9489C56.1781 87.0622 51.483 85.8689 47.291 83.5911L32.142 87.5573Z" fill="#1864FF" fill-opacity="0.31"/>
</g>
<path d="M31.8491 87.2623L35.904 72.4845C33.399 68.1514 32.0828 63.2336 32.0884 58.2285C32.0946 42.504 44.9151 29.7124 60.6705 29.7124C68.3162 29.7165 75.4916 32.6865 80.8871 38.0758C86.2826 43.4652 89.2526 50.6303 89.2506 58.2512C89.2444 73.9737 76.4218 86.7673 60.6684 86.7673H60.6561C55.8852 86.7673 51.1901 85.574 46.9982 83.2962L31.8491 87.2623Z" fill="white"/>
<path d="M60.6787 34.5305C47.5756 34.5305 36.9187 45.1627 36.9146 58.2307C36.9084 62.6939 38.1665 67.0664 40.5466 70.8449L41.1118 71.7421L38.711 80.4871L47.7014 78.1338L48.5698 78.6473C52.2315 80.811 56.4069 81.9521 60.6601 81.9515H60.6684C73.7611 81.9515 84.4181 71.3193 84.4222 58.2492C84.4321 55.134 83.8229 52.0478 82.6299 49.1701C81.4361 46.291 79.6828 43.6776 77.4716 41.4811C75.2729 39.2722 72.6577 37.519 69.7743 36.3269C66.8908 35.1335 63.7994 34.5229 60.6787 34.5305Z" fill="url(#paint0_linear_30_44)"/>
<path fill-rule="evenodd" clip-rule="evenodd" d="M53.5261 46.3072C52.9899 45.1213 52.4268 45.0965 51.9194 45.0759L50.5499 45.0594C50.0735 45.0594 49.3 45.2368 48.6462 45.9504C47.9924 46.664 46.1465 48.3883 46.1465 51.8945C46.1465 55.4008 48.706 58.7895 49.0629 59.2659C49.4197 59.7424 54.0025 67.1674 61.2625 70.0239C67.2954 72.3979 68.5225 71.9255 69.8322 71.808C71.1419 71.6904 74.0583 70.0837 74.6523 68.4193C75.2463 66.7549 75.2484 65.3297 75.0689 65.0306C74.8895 64.7315 74.4151 64.5562 73.6994 64.1994L68.8195 61.8812C68.1657 61.644 67.6893 61.5244 67.2129 62.238C66.7364 62.9516 65.369 64.5562 64.9524 65.0327C64.5357 65.5091 64.1191 65.5689 63.4055 65.2121C62.6919 64.8553 60.3901 64.1025 57.6635 61.6749C55.5412 59.7857 54.1077 57.453 53.6911 56.7394C53.2745 56.0257 53.6478 55.64 54.0046 55.2853C54.3243 54.9656 54.7182 54.452 55.0771 54.0375C55.436 53.6229 55.5535 53.3239 55.7907 52.8495C56.0279 52.3751 55.9104 51.9564 55.7309 51.6017C55.5515 51.2469 54.1655 47.72 53.5302 46.3114" fill="white"/>
<defs>
<filter id="filter0_d_30_44" x="86.75" y="77.4375" width="22.4375" height="22.4375" filterUnits="userSpaceOnUse" color-interpolation-filters="sRGB">
<feFlood flood-opacity="0" result="BackgroundImageFix"/>
<feColorMatrix in="SourceAlpha" type="matrix" values="0 0 0 0 0 0 0 0 0 0 0 0 0 0 0 0 0 0 127 0" result="hardAlpha"/>
<feOffset dy="1"/>
<feGaussianBlur stdDeviation="1"/>
<feColorMatrix type="matrix" values="0 0 0 0 0 0 0 0 0 0.0470588 0 0 0 0 0.168627 0 0 0 0.08 0"/>
<feBlend mode="normal" in2="BackgroundImageFix" result="effect1_dropShadow_30_44"/>
<feBlend mode="normal" in="SourceGraphic" in2="effect1_dropShadow_30_44" result="shape"/>
</filter>
<filter id="filter1_f_30_44" x="25.08" y="22.9453" width="71.5256" height="71.6739" filterUnits="userSpaceOnUse" color-interpolation-filters="sRGB">
<feFlood flood-opacity="0" result="BackgroundImageFix"/>
<feBlend mode="normal" in="SourceGraphic" in2="BackgroundImageFix" result="shape"/>
<feGaussianBlur stdDeviation="3.531" result="effect1_foregroundBlur_30_44"/>
</filter>
<linearGradient id="paint0_linear_30_44" x1="572.945" y1="99.9715" x2="578.483" y2="1031.7" gradientUnits="userSpaceOnUse">
<stop stop-color="#57D163"/>
<stop offset="1" stop-color="#23B33A"/>
</linearGradient>
</defs>
</svg>
